<?xml version="1.0" encoding="UTF-8" ?>
<!DOCTYPE svg PUBLIC "-//W3C//DTD SVG 1.1//EN" "http://www.w3.org/Graphics/SVG/1.1/DTD/svg11.dtd">
<svg width="256pt" height="256pt" viewBox="0 0 256 256" version="1.1" xmlns="http://www.w3.org/2000/svg">
<g id="#000000ff">
<path fill="#000000" opacity="1.00" d=" M 0.00 0.00 L 256.00 0.00 L 256.00 256.00 L 0.00 256.00 L 0.00 0.00 M 59.99 88.74 C 60.01 94.06 60.00 99.39 60.00 104.72 C 82.69 117.65 105.31 130.69 128.00 143.60 C 141.67 135.71 155.34 127.81 168.99 119.89 C 169.04 130.34 168.93 140.78 169.05 151.23 C 155.46 159.32 141.64 167.02 128.00 175.03 C 114.33 167.08 100.59 159.23 86.89 151.33 C 77.83 156.45 68.80 161.61 59.76 166.76 C 82.42 179.99 105.27 192.90 128.00 206.02 C 150.67 193.01 173.40 180.12 196.03 167.03 C 195.98 140.92 195.99 114.81 196.02 88.70 C 173.38 75.63 150.68 62.65 128.01 49.63 C 105.33 62.64 82.66 75.68 59.99 88.74 Z" />
<path fill="#000000" opacity="1.00" d=" M 100.27 96.58 C 109.54 91.32 118.75 85.94 128.00 80.64 C 137.30 85.95 146.57 91.32 155.88 96.61 C 146.57 101.93 137.29 107.27 128.00 112.60 C 118.77 107.24 109.47 101.98 100.27 96.58 Z" />
</g>
<g id="#ffffffff">
<path fill="#ffffff" opacity="1.00" d=" M 59.99 88.74 C 82.66 75.68 105.33 62.64 128.01 49.63 C 150.68 62.65 173.38 75.63 196.02 88.70 C 195.99 114.81 195.98 140.92 196.03 167.03 C 173.40 180.12 150.67 193.01 128.00 206.02 C 105.27 192.90 82.42 179.99 59.76 166.76 C 68.80 161.61 77.83 156.45 86.89 151.33 C 100.59 159.23 114.33 167.08 128.00 175.03 C 141.64 167.02 155.46 159.32 169.05 151.23 C 168.93 140.78 169.04 130.34 168.99 119.89 C 155.34 127.81 141.67 135.71 128.00 143.60 C 105.31 130.69 82.69 117.65 60.00 104.72 C 60.00 99.39 60.01 94.06 59.99 88.74 M 100.27 96.58 C 109.47 101.98 118.77 107.24 128.00 112.60 C 137.29 107.27 146.57 101.93 155.88 96.61 C 146.57 91.32 137.30 85.95 128.00 80.64 C 118.75 85.94 109.54 91.32 100.27 96.58 Z" />
</g>
</svg>
