<?xml version="1.0" encoding="UTF-8"?>
<svg width="437" height="145" xmlns="http://www.w3.org/2000/svg">
 <g id="ars-icon-logo-ars-us">
  <title>logo-ars-us</title>
  <circle cx="72.2" cy="72.2" r="72.2" fill="#ff4e00"/>
  <g fill="#fff">
   <path transform="translate(-743.7 752.2)" d="m790.3-658-0.9-5.9a20.8 20.8 0 0 1-15.6 6.8c-8 0-13-4.8-13-12.3 0-11 9.4-15.4 27.9-17.3v-1.9c0-5.6-3.3-7.5-8.4-7.5s-10.5 1.7-15.3 3.8l-1.1-7.1c5.3-2.1 10.3-3.7 17.1-3.7 10.7 0 15.9 4.3 15.9 14.2v30.9h-6.7zm-1.6-22.4c-16.3 1.6-19.7 6-19.7 10.6s2.4 5.9 6.6 5.9 9.4-2.4 13.1-6.2v-10.3z"/>
   <path transform="translate(-743.7 752.2)" d="m816.1-684.1v26.1h-8.2v-44.1h6.6l1.4 9c3.1-5 8.2-9.5 15.5-9.9l1.3 7.9c-7.4 0.3-13.6 5.2-16.6 11z"/>
   <path transform="translate(-743.7 752.2)" d="m853.4-657.1a36.2 36.2 0 0 1-16.1-4.2l1.2-7.8a27.6 27.6 0 0 0 15.6 5.1c5.6 0 9-2.1 9-5.8s-2.5-5.6-10.5-7.5c-10.4-2.6-14.5-5.7-14.5-13.6s5.9-12.2 15.6-12.2a35.7 35.7 0 0 1 14.5 3l-1.3 7.8a28.2 28.2 0 0 0-13.4-3.8c-5 0-7.6 1.9-7.6 5.1s2.2 4.6 9.2 6.4c10.9 2.8 15.8 5.9 15.8 14.3s-6.1 13.2-17.5 13.2z"/>
  </g>
  <path transform="translate(-743.7 752.2)" d="m963-668.3c-4.4 3.7-8.4 5-12.8 5-7.7 0-12.7-5.3-13.5-14h24.9l0.9-5.5h-25.8c0.8-8.7 5.7-14.1 12.9-14.1 4.9 0 8.8 1.7 12.9 5.1l1-5.9a23 23 0 0 0-13.7-4.3c-10.7 0-19.2 7.8-19.2 21.9s8.3 21.9 18.9 21.9a22.1 22.1 0 0 0 14.3-4.8z"/>
  <path transform="translate(-743.7 752.2)" d="M914.2-695.9v37h-5.8v-37H895v-5.3h32.2l0.9,5.3H914.2Z"/>
  <path transform="translate(-743.7 752.2)" d="m988.9-658.2c-11.9 0-19.5-8.8-19.5-21.8s7.8-22 19.6-22a20.3 20.3 0 0 1 12 3.5l-0.9 5.9a18.1 18.1 0 0 0-11.2-4.1c-8.6 0-13.6 6.5-13.6 16.6s5.1 16.6 13.6 16.6a20.1 20.1 0 0 0 11.9-4.2l0.9 5.4a22.3 22.3 0 0 1-12.8 4.1z"/>
  <path transform="translate(-743.7 752.2)" d="M1036.4-659v-19.5H1015V-659h-5.8v-42.2h5.8v17.5h21.4v-17.5h5.8V-659h-5.8Z"/>
  <path transform="translate(-743.7 752.2)" d="m1079.4-659-23.2-32.9v32.9h-5.3v-42.2h5.1l22.4 31.6v-31.6h5.3v42.2h-4.3z"/>
  <path transform="translate(-743.7 752.2)" d="m1092.8-659v-42.2h5.8v42.2h-5.8z"/>
  <path transform="translate(-743.7 752.2)" d="m1125.5-658.2c-11.9 0-19.5-8.8-19.5-21.8s7.8-22 19.6-22a20.3 20.3 0 0 1 12 3.5l-0.9 5.9a18.1 18.1 0 0 0-11.2-4.1c-8.6 0-13.6 6.5-13.6 16.6s5.1 16.6 13.6 16.6a20.1 20.1 0 0 0 11.9-4.2l0.9 5.4a22.3 22.3 0 0 1-12.8 4.1z"/>
  <path transform="translate(-743.7 752.2)" d="m1158.5-701.4h5.8l16.3 41.6-5.6 1.2-5-13.1h-17.4l-4.8 12.7h-5.8zm-4 24.7h13.5l-6.8-17.9z"/>
 </g>
</svg>
