<?xml version="1.0" encoding="UTF-8"?>
<svg width="300" height="86.219" version="1.0" xmlns="http://www.w3.org/2000/svg">
 <g transform="translate(-27.138 -941.7)">
  <g transform="matrix(.82302 0 0 -.82302 189.64 997.28)">
   <path d="m0 0c0-11.25-14-10.583-14-10.583h-14v20.333h14c14.417 0.083 14-9.75 14-9.75m-28 40.75h10.667c11.083-0.584 10.666-8.833 10.666-8.833 0-10.25-12.25-10.417-12.25-10.417h-9.083v19.25zm25.417-23.25s9.583 4.083 9.5 14.917c0 0 1.457 17.749-22.063 19.916h-26.104v-74.416h29.917s25-0.084 25 21c0 0 0.583 14.333-16.25 18.583m-67.545 49.416h109.88v-103.54h-109.88v103.54z"/>
  </g>
  <g transform="matrix(.82302 0 0 -.82302 85.355 997.28)">
   <path d="m0 0c0-11.25-14-10.583-14-10.583h-14v20.333h14c14.417 0.083 14-9.75 14-9.75m-28 40.75h10.667c11.083-0.584 10.666-8.833 10.666-8.833 0-10.25-12.25-10.417-12.25-10.417h-9.083v19.25zm25.417-23.25s9.583 4.083 9.5 14.917c0 0 1.457 17.749-22.063 19.916h-26.104v-74.416h29.917s25-0.084 25 21c0 0 0.583 14.333-16.25 18.583m-67.545 49.416h109.88v-103.54h-109.88v103.54z"/>
  </g>
  <g transform="matrix(.82302 0 0 -.82302 308.19 958.6)">
   <path d="m0 0v-13.75s-13.417 8.25-28.25 8.417c0 0-27.666 0.54-28.916-26.522 0 0-1-24.895 28.583-26.312 0 0 12.417-1.5 29.25 9.25v-14.25s-22.583-13.416-48.75-3.083c0 0-22 8.04-22.834 34.395 0 0-0.917 27.105 28.417 36.105 0 0 7.834 3 21.917 1.667 0 0 8.416-0.834 20.583-5.917m-87.461-83.627h109.88v103.54h-109.88v-103.54z"/>
  </g>
 </g>
</svg>
