<?xml version="1.0" encoding="UTF-8"?>
<!-- Created with Inkscape (http://www.inkscape.org/) -->
<svg id="svg4197" width="120mm" height="119.56mm" version="1.1" viewBox="0 0 425.2 423.63" xmlns="http://www.w3.org/2000/svg" xmlns:cc="http://creativecommons.org/ns#" xmlns:dc="http://purl.org/dc/elements/1.1/" xmlns:rdf="http://www.w3.org/1999/02/22-rdf-syntax-ns#">
 <metadata id="metadata4202">
  <rdf:RDF>
   <cc:Work rdf:about="">
    <dc:format>image/svg+xml</dc:format>
    <dc:type rdf:resource="http://purl.org/dc/dcmitype/StillImage"/>
    <dc:title/>
   </cc:Work>
  </rdf:RDF>
 </metadata>
 <g id="layer1" transform="translate(-17.935 -428.95)">
  <g id="g5800" transform="matrix(6.1766 0 0 6.1766 -5398.9 -4341.5)" stroke-width=".8845">
   <g id="g4450" transform="translate(128.57)" shape-rendering="auto" stroke-width=".8845">
    <rect id="rect4394" transform="matrix(-.7125 .70168 -.7125 -.70168 0 0)" x="27.659" y="-1122.2" width="16.075" height="16.075" color="#000000" color-rendering="auto" fill="#932279" image-rendering="auto" xml:space="default"/>
    <rect id="rect4396" transform="matrix(-.70495 -.70926 .70495 -.70926 0 0)" x="-1122" y="-12.326" width="16.004" height="16.004" color="#000000" color-rendering="auto" fill="#efa724" image-rendering="auto" xml:space="default"/>
    <rect id="rect4398" transform="matrix(-.7125 .70168 -.7125 -.70168 0 0)" x="27.809" y="-1141.6" width="16.075" height="16.075" color="#000000" color-rendering="auto" fill="#9ccd2a" image-rendering="auto" xml:space="default"/>
    <rect id="rect4400" transform="matrix(-.70495 -.70926 .70495 -.70926 0 0)" x="-1141.3" y="-12.27" width="16.004" height="16.004" color="#000000" color-rendering="auto" fill="#262577" image-rendering="auto" xml:space="default"/>
    <rect id="rect4404" x="784.49" y="809.07" width="15.293" height="15.407" color="#000000" color-rendering="auto" fill="#efa724" image-rendering="auto" xml:space="default"/>
    <rect id="rect4406" x="784.55" y="789.17" width="15.345" height="15.329" color="#000000" color-rendering="auto" fill="#932279" image-rendering="auto" xml:space="default"/>
    <rect id="rect4414" x="763.95" y="809.07" width="15.976" height="15.976" color="#000000" color-rendering="auto" fill="#262577" image-rendering="auto" xml:space="default"/>
    <rect id="rect4408" x="763.95" y="788.52" width="15.977" height="15.884" color="#000000" color-rendering="auto" fill="#9ccd2a" image-rendering="auto" xml:space="default"/>
    <path id="rect4329" d="m782.25 781.01-6.9021 6.9443h-11.967v0.57019 11.179l-7.2382 7.1283 7.2401 7.1301v11.652h11.618l7.1023 6.9945 7.1023-6.9945h11.738v-11.619l7.0856-7.1289-6.988-7.0307v-11.789h-11.798zm-5e-4 1.618 5.3851 5.4181h-3.6544v0.57219 13.352l-1.7306 1.7412-1.7517-1.7624v-13.995h-3.5423zm-17.728 6.4668h9.6931l-4.0517 4.0765 9.1946 9.2508v1.4149h-1.7219l-9.2258-9.0857-3.8882 3.829zm11.301 0h3.5353v11.707l-7.5854-7.6318zm9.301 0.0937h3.6474l3.9571 3.9814-7.6045 7.6509zm5.256 0h9.5213v9.4992l-3.9576-3.9817-9.1686 9.2247h-1.6511v-1.4916l9.213-9.2694zm5.5639 7.1356 3.9574 3.9817v3.6248h-11.518zm-27.532 0.0291 7.599 7.4837h-11.489v-3.6531zm-5.0302 4.9537v3.6707h13.787l1.8828 1.8542-1.691 1.6653h-13.977v0.57035 3.291l-5.6119-5.5267zm37.66 0.14648 5.3797 5.4127-5.4773 5.5108v-3.8818h-13.859l-1.6193-1.6292 1.7837-1.7946h13.792zm-20.543 2.1163 1.7507 1.7614 0.40344-0.40596 1.3282-1.3364v1.4825h1.6602l-1.7837 1.7946 1.6193 1.6292h-1.5524v0.57236 1.1733l-1.8209-1.7932-1.6029 1.5786v-1.5291h-1.5145l1.691-1.6653-0.40629-0.4001-1.4765-1.4541h1.7044zm-15.975 6.0679h11.679l-7.791 7.6727-3.8876-3.8286zm13.304 0h1.5301v1.5138l-9.5213 9.3767 4.0043 3.9436h-9.3169v-9.3864l3.8861 3.827zm7.2372 0h1.5472l9.3313 9.3882 0.40194-0.40445 3.4578-3.4788v9.3312h-9.4395l4.0065-3.9456-0.40629-0.40027-8.8989-8.7638zm3.1554 0h11.583v3.887l-3.8597 3.8833zm-6.1156 0.41199 1.8195 1.7919v13.773h3.6561l-5.4756 5.3924-5.4756-5.3924h3.8714v-13.985zm-2.747 2.7053v11.717h-3.8888l-4.0043-3.9436zm5.7072 0.21009 7.6799 7.5632-4.0063 3.9456h-3.6735z" color="#000000" color-rendering="auto" dominant-baseline="auto" fill="#fff" image-rendering="auto" solid-color="#000000" style="font-feature-settings:normal;font-variant-alternates:normal;font-variant-caps:normal;font-variant-ligatures:normal;font-variant-numeric:normal;font-variant-position:normal;isolation:auto;mix-blend-mode:normal;shape-padding:0;text-decoration-color:#000000;text-decoration-line:none;text-decoration-style:solid;text-indent:0;text-orientation:mixed;text-transform:none;white-space:normal"/>
   </g>
  </g>
 </g>
</svg>
