<?xml version="1.0" encoding="UTF-8"?>
<svg width="494px" height="455px" version="1.1" viewBox="0 0 494 455" xmlns="http://www.w3.org/2000/svg" xmlns:xlink="http://www.w3.org/1999/xlink">
 <!-- Generator: Sketch 3.2.2 (9983) - http://www.bohemiancoding.com/sketch -->
 <title>logo</title>
 <desc>Created with Sketch.</desc>
 <defs>
  <path id="path-1" d="m0 1173.3h2e3v-1173.3h-2e3v1173.3z"/>
 </defs>
 <g id="Page-1" fill="none" fill-rule="evenodd">
  <g id="gitlab_logo" transform="translate(-359 -360)">
   <g id="g10" transform="translate(1e3 587.67) scale(1 -1) translate(-1e3 -586.67)">
    <g id="g16">
     <g id="g18-Clipped">
      <mask id="mask-2" fill="white">
       <use xlink:href="#path-1"/>
      </mask>
      <g id="g18" mask="url(#mask-2)">
       <g transform="translate(358.67 358.67)">
        <g id="g44" transform="translate(.532 .77493)">
         <path id="path46" d="m492 194.67-27.559 84.815-54.617 168.1c-2.8093 8.648-15.045 8.648-17.856 0l-54.619-168.1h-181.37l-54.62 168.1c-2.8093 8.648-15.045 8.648-17.856 0l-54.617-168.1-27.557-84.815c-2.5147-7.736 0.24-16.211 6.82-20.992l238.51-173.29 238.51 173.29c6.58 4.7813 9.3333 13.256 6.82 20.992" fill="#FC6D26"/>
        </g>
        <g id="g48" transform="translate(155.2 1.1603)">
         <path id="path50" d="m92 0 90.684 279.1h-181.37l90.684-279.1z" fill="#E24329"/>
        </g>
        <g id="g52" transform="translate(247.2 1.1603)"></g>
        <g id="g56" transform="translate(28.531 1.1608)">
         <path id="path58" d="m218.67 0-90.684 279.09h-127.09l217.78-279.09z" fill="#FC6D26"/>
        </g>
        <g id="g60" transform="translate(247.2 1.1608)"></g>
        <g id="g64" transform="translate(.088533 .25587)">
         <path id="path66" d="m29.333 280-27.559-84.815c-2.5133-7.736 0.24-16.211 6.8213-20.991l238.51-173.29-217.78 279.09z" fill="#FCA326"/>
        </g>
        <g id="g68" transform="translate(247.2 1.1603)"></g>
        <g id="g72" transform="translate(29.422 280.26)">
         <path id="path74" d="m0 0h127.09l-54.619 168.1c-2.8107 8.6493-15.047 8.6493-17.856 0l-54.617-168.1z" fill="#E24329"/>
        </g>
        <g id="g76" transform="translate(247.2 1.1608)">
         <path id="path78" d="m0 0 90.684 279.09h127.09l-217.78-279.09z" fill="#FC6D26"/>
        </g>
        <g id="g80" transform="translate(246.31 .25587)">
         <path id="path82" d="m218.67 280 27.559-84.815c2.5133-7.736-0.24-16.211-6.8213-20.991l-238.51-173.29 217.78 279.09z" fill="#FCA326"/>
        </g>
        <g id="g84" transform="translate(336.97 280.26)">
         <path id="path86" d="m128 0h-127.09l54.619 168.1c2.8107 8.6493 15.047 8.6493 17.856 0l54.617-168.1z" fill="#E24329"/>
        </g>
       </g>
      </g>
     </g>
    </g>
   </g>
  </g>
 </g>
</svg>
