<?xml version="1.0" encoding="UTF-8"?>
<!-- Created with Inkscape (http://www.inkscape.org/) -->
<svg id="svg6320" width="545.78" height="171" version="1.0" xmlns="http://www.w3.org/2000/svg" xmlns:cc="http://web.resource.org/cc/" xmlns:dc="http://purl.org/dc/elements/1.1/" xmlns:rdf="http://www.w3.org/1999/02/22-rdf-syntax-ns#">
 <metadata id="metadata6325">
  <rdf:RDF>
   <cc:Work rdf:about="">
    <dc:format>image/svg+xml</dc:format>
    <dc:type rdf:resource="http://purl.org/dc/dcmitype/StillImage"/>
   </cc:Work>
  </rdf:RDF>
 </metadata>
 <g id="Ebene_x0020_1" transform="matrix(3.3772 0 0 3.3772 2.7293 1.0604)">
  <g id="_146422800">
   <path id="_146426856" d="m25.512 20.737v11.151h8.509l-0.8128 1.27c-1.524 2.3114-3.5052 3.3528-6.5278 3.2512-5.334-0.1778-9.2964-4.3434-9.2202-11.252 0.0762-6.1976 4.1402-10.389 9.2202-10.312 2.0574 0.0254 3.5052 0.635 5.5118 2.3368l1.4732 1.2446 15.392-5.7404-1.0414-1.4732c-4.8006-6.858-12.624-10.693-22.581-10.465-16.002 0.3556-26.162 11.252-25.121 25.73 1.016 13.894 11.481 23.089 26.365 22.784 6.477-0.1524 11.303-1.8288 15.443-5.08 1.2192-0.9652 2.3114-2.032 3.2766-3.2004l2.7178-20.244h-22.606z"/>
   <path id="_145350192" d="m107.2 39.203-4.8768-37.135h-19.253l-6.5023 22.504h-0.0508l-6.731-22.606h-19.126l-2.54 18.771h2.9972v2.667c0 7.239-2.032 13.157-5.715 17.577l-1.143 7.0866h17.094l2.3368-24.994h0.0508l7.6708 25.222h9.9059l8.2042-25.425h0.0508l1.8034 25.4 9.906-0.0254 5.9182-9.0424z"/>
   <polygon id="_146425176" points="136.56 23.607 151.32 1.9665 131.86 1.9665 127.04 11.949 122.08 2.0681 102.65 2.0681 117.48 23.531 107.2 39.203 108.37 48.245 120.43 48.245 127.04 35.698 133.84 48.322 153.02 48.322"/>
   <path id="_146423352" d="m159.75 5.5225c0 2.3114-1.8542 4.191-4.1656 4.191v-1.016c1.6764 0 3.0226-1.4224 3.0226-3.175 0-1.7272-1.3462-3.1496-3.0226-3.1496v-1.016c2.3114 0 4.1656 1.8796 4.1656 4.1656zm-4.1656 1.0668c0.0508 0.0762 0.1016 0.1778 0.1524 0.2794 0.1778 0.2794 0.2286 0.4064 0.4318 0.7112h1.2954s-0.4318-0.7366-0.7366-1.2192c-0.1778-0.2286-0.3302-0.4826-0.5842-0.5842 0.5588-0.0508 0.9906-0.5334 0.9906-1.1684 0-0.7874-0.5334-1.3208-1.3716-1.3208h-0.1778v0.9144c0.254 0.0254 0.381 0.1524 0.381 0.4318 0 0.2286-0.0762 0.381-0.381 0.4064v1.5494zm0 3.1242c-2.3114 0-4.1656-1.8796-4.1656-4.191 0-2.286 1.8542-4.1656 4.1656-4.1656v1.016c-1.6764 0-3.0226 1.4224-3.0226 3.1496 0 1.7526 1.3462 3.175 3.0226 3.175v1.016zm0-6.4262h-1.5494v4.2926h1.0922v-1.6764c0.0762 0.0508 0.1778 0.2032 0.4572 0.6858v-1.5494h-0.1778-0.2794v-0.8636h0.3048c0.0508 0 0.1016 0 0.1524 0.0254v-0.9144z"/>
  </g>
 </g>
</svg>
