<?xml version="1.0" encoding="UTF-8" standalone="no"?>
<!-- Created with Inkscape (http://www.inkscape.org/) -->
<svg
   xmlns:dc="http://purl.org/dc/elements/1.1/"
   xmlns:cc="http://web.resource.org/cc/"
   xmlns:rdf="http://www.w3.org/1999/02/22-rdf-syntax-ns#"
   xmlns:svg="http://www.w3.org/2000/svg"
   xmlns="http://www.w3.org/2000/svg"
   xmlns:sodipodi="http://sodipodi.sourceforge.net/DTD/sodipodi-0.dtd"
   xmlns:inkscape="http://www.inkscape.org/namespaces/inkscape"
   id="svg6320"
   sodipodi:version="0.32"
   inkscape:version="0.44"
   width="545.77557"
   height="171"
   sodipodi:docbase="C:\Dokumente und Einstellungen\Andreas\Eigene Dateien\Eigene Bilder\sonstiges\Logos\Vektor\Computer, Electronics"
   sodipodi:docname="GMX-Logo.svg"
   version="1.0">
  <metadata
     id="metadata6325">
    <rdf:RDF>
      <cc:Work
         rdf:about="">
        <dc:format>image/svg+xml</dc:format>
        <dc:type
           rdf:resource="http://purl.org/dc/dcmitype/StillImage" />
      </cc:Work>
    </rdf:RDF>
  </metadata>
  <defs
     id="defs6323">





















<clipPath
   clip-rule="nonzero"
   id="clp2">
<path
   id="path2156"
   d="M 60.257,169.78 L 204.09,169.78 L 204.09,221.57 L 60.257,221.57 L 60.257,169.78 z " />

</clipPath>





</defs>
  <sodipodi:namedview
     guidetolerance="10.0"
     gridtolerance="10.0"
     objecttolerance="10.0"
     inkscape:window-height="574"
     inkscape:window-width="904"
     inkscape:pageshadow="2"
     inkscape:pageopacity="0.0"
     borderopacity="1.0"
     bordercolor="#666666"
     pagecolor="#ffffff"
     id="base"
     inkscape:zoom="0.35539095"
     inkscape:cx="372.04724"
     inkscape:cy="526.18109"
     inkscape:window-x="160"
     inkscape:window-y="212"
     inkscape:current-layer="svg6320"
     height="48.26mm"
     width="154.03mm" />
  <g
     id="Ebene_x0020_1"
     transform="matrix(3.377158,0,0,3.377158,2.729267,1.060433)"
     style="fill:black">
  <metadata
   id="CorelCorpID_0Corel-Layer" />

  <g
   id="_146422800"
   style="fill:black">
   <path
   d="M 25.5116,20.7371 L 25.5116,31.8877 L 34.0206,31.8877 L 33.2078,33.1577 C 31.6838,35.4691 29.7026,36.5105 26.68,36.4089 C 21.346,36.2311 17.3836,32.0655 17.4598,25.1567 C 17.536,18.9591 21.6,14.7681 26.68,14.8443 C 28.7374,14.8697 30.1852,15.4793 32.1918,17.1811 L 33.665,18.4257 L 49.0574,12.6853 L 48.016,11.2121 C 43.2154,4.3541 35.3922,0.5187 25.4354,0.7473 C 9.4334,1.1029 -0.7266,11.9995 0.3148,26.4775 C 1.3308,40.3713 11.7956,49.5661 26.68,49.2613 C 33.157,49.1089 37.983,47.4325 42.1232,44.1813 C 43.3424,43.2161 44.4346,42.1493 45.3998,40.9809 L 48.1176,20.7371 L 25.5116,20.7371 L 25.5116,20.7371 z "
   id="_146426856"
   style="fill:black" />

   <path
   d="M 107.198,39.2029 L 102.3212,2.0681 L 83.068,2.0681 L 76.5657,24.5725 L 76.5149,24.5725 L 69.7839,1.9665 L 50.6577,1.9665 L 48.1177,20.7371 L 51.1149,20.7371 L 51.1149,23.4041 C 51.1149,30.6431 49.0829,36.5613 45.3999,40.9809 L 44.2569,48.0675 L 61.3511,48.0675 L 63.6879,23.0739 L 63.7387,23.0739 L 71.4095,48.2961 L 81.3154,48.2961 L 89.5196,22.8707 L 89.5704,22.8707 L 91.3738,48.2707 L 101.2798,48.2453 L 107.198,39.2029 L 107.198,39.2029 z "
   id="_145350192"
   style="fill:black" />

   <polygon
   points="136.56,23.6073 151.318,1.9665 131.861,1.9665 127.035,11.9487 122.082,2.0681 102.651,2.0681 117.485,23.5311 107.198,39.2029 108.366,48.2453 120.431,48.2453 127.035,35.6977 133.843,48.3215 153.019,48.3215 136.56,23.6073 "
   id="_146425176"
   style="fill:black" />

   <path
   d="M 159.75,5.5225 C 159.75,7.8339 157.8958,9.7135 155.5844,9.7135 L 155.5844,8.6975 C 157.2608,8.6975 158.607,7.2751 158.607,5.5225 C 158.607,3.7953 157.2608,2.3729 155.5844,2.3729 L 155.5844,1.3569 C 157.8958,1.3569 159.75,3.2365 159.75,5.5225 L 159.75,5.5225 z M 155.5844,6.5893 C 155.6352,6.6655 155.686,6.7671 155.7368,6.8687 C 155.9146,7.1481 155.9654,7.2751 156.1686,7.5799 L 157.464,7.5799 C 157.464,7.5799 157.0322,6.8433 156.7274,6.3607 C 156.5496,6.1321 156.3972,5.8781 156.1432,5.7765 C 156.702,5.7257 157.1338,5.2431 157.1338,4.6081 C 157.1338,3.8207 156.6004,3.2873 155.7622,3.2873 L 155.5844,3.2873 L 155.5844,4.2017 C 155.8384,4.2271 155.9654,4.3541 155.9654,4.6335 C 155.9654,4.8621 155.8892,5.0145 155.5844,5.0399 L 155.5844,6.5893 L 155.5844,6.5893 z M 155.5844,9.7135 C 153.273,9.7135 151.4188,7.8339 151.4188,5.5225 C 151.4188,3.2365 153.273,1.3569 155.5844,1.3569 L 155.5844,2.3729 C 153.908,2.3729 152.5618,3.7953 152.5618,5.5225 C 152.5618,7.2751 153.908,8.6975 155.5844,8.6975 L 155.5844,9.7135 L 155.5844,9.7135 z M 155.5844,3.2873 L 154.035,3.2873 L 154.035,7.5799 L 155.1272,7.5799 L 155.1272,5.9035 C 155.2034,5.9543 155.305,6.1067 155.5844,6.5893 L 155.5844,5.0399 C 155.5336,5.0399 155.4828,5.0399 155.4066,5.0399 L 155.1272,5.0399 L 155.1272,4.1763 L 155.432,4.1763 C 155.4828,4.1763 155.5336,4.1763 155.5844,4.2017 L 155.5844,3.2873 L 155.5844,3.2873 z "
   id="_146423352"
   style="fill:black" />

  </g>

 </g>
</svg>
