<?xml version="1.0" encoding="UTF-8"?>
<!-- Created with Inkscape (http://www.inkscape.org/) -->
<svg id="svg2" width="150" height="54.184" version="1.1" xmlns="http://www.w3.org/2000/svg" xmlns:cc="http://creativecommons.org/ns#" xmlns:dc="http://purl.org/dc/elements/1.1/" xmlns:rdf="http://www.w3.org/1999/02/22-rdf-syntax-ns#">
 <metadata id="metadata7">
  <rdf:RDF>
   <cc:Work rdf:about="">
    <dc:format>image/svg+xml</dc:format>
    <dc:type rdf:resource="http://purl.org/dc/dcmitype/StillImage"/>
    <dc:title/>
   </cc:Work>
  </rdf:RDF>
 </metadata>
 <g id="layer1" transform="translate(-559.75 -709.63)">
  <g id="text2996" transform="matrix(.93208 0 0 .9104 44.122 58.811)">
   <path id="path3003" d="m570.18 754.21v-19.028c-1e-5 -2.3455 0.39091-4.0948 1.1728-5.248 0.78182-1.1532 1.9643-1.7298 3.5476-1.7298 0.91864 4e-5 1.7542 0.25902 2.5067 0.77695 0.75251 0.51799 1.422 1.3047 2.0083 2.3602 0.97728-1.075 2.0816-1.8666 3.313-2.3748 1.2314-0.50816 2.6484-0.76225 4.2512-0.76229 2.0327 4e-5 3.831 0.37141 5.3946 1.1141 1.5636 0.74278 2.9123 1.8569 4.046 3.3423 1.4268-1.5832 2.883-2.7217 4.3685-3.4156 1.4854-0.69385 3.2055-1.0408 5.1601-1.0408 3.3814 4e-5 6.0103 1.0848 7.8867 3.2544 1.8764 2.1696 2.8146 5.2285 2.8146 9.1768v13.575c-5e-5 2.326-0.39097 4.0558-1.1728 5.1894-0.78188 1.1337-1.9742 1.7005-3.5769 1.7005-1.6028 0-2.7853-0.56194-3.5476-1.6858-0.76233-1.1239-1.1435-2.8586-1.1434-5.2041v-10.701c-4e-5 -2.4823-0.34698-4.3-1.0408-5.4533-0.69392-1.1532-1.7836-1.7298-3.269-1.7298-1.6419 3e-5 -2.8439 0.56685-3.6062 1.7005-0.76232 1.1337-1.1435 2.9221-1.1434 5.3653v10.819c-3e-5 2.326-0.39095 4.0558-1.1728 5.1894-0.78186 1.1337-1.9742 1.7005-3.5769 1.7005-1.6028 0-2.7951-0.56682-3.5769-1.7005-0.78186-1.1336-1.1728-2.8635-1.1728-5.1894v-10.701c-2e-5 -2.5018-0.34207-4.3245-1.0262-5.4679-0.68413-1.1434-1.7591-1.7151-3.2251-1.7151-1.6419 3e-5 -2.8439 0.56685-3.6062 1.7005-0.7623 1.1337-1.1434 2.9221-1.1434 5.3653v10.819c-1e-5 2.326-0.39092 4.0558-1.1727 5.1894-0.78185 1.1337-1.9741 1.7005-3.5769 1.7005-1.6028 0-2.7902-0.56682-3.5622-1.7005-0.77207-1.1336-1.1581-2.8635-1.1581-5.1894z"/>
   <path id="path3005" d="m643.36 756.74c-1.036 1.4855-2.2673 2.5947-3.6942 3.3277-1.4269 0.73297-3.0589 1.0994-4.8962 1.0994-3.831 0-7.0707-1.5734-9.7192-4.7203-2.6484-3.1469-3.9727-7.056-3.9727-11.727 0-4.7105 1.4268-8.6783 4.2805-11.903 2.8537-3.225 6.3328-4.8376 10.437-4.8376 1.6027 3e-5 3.0247 0.27367 4.2659 0.82092 1.2411 0.54731 2.3406 1.3976 3.2984 2.5507 0.50817-0.93816 1.1385-1.676 1.8911-2.2136 0.75249-0.53747 1.5197-0.80623 2.3015-0.80626 1.6223 3e-5 2.8194 0.56197 3.5915 1.6858 0.77202 1.1239 1.158 2.8488 1.1581 5.1748v19.028c-3e-5 3.4987-0.17105 6.2302-0.51307 8.1946-0.34209 1.9644-0.9138 3.5915-1.7152 4.8816-1.3878 2.3259-3.2984 4.0899-5.7318 5.292-2.4335 1.202-5.3214 1.8031-8.6637 1.8031-4.0851-1e-5 -7.4176-0.6548-9.9977-1.9644-2.58-1.3096-3.8701-2.9612-3.8701-4.9549 0-1.1923 0.38603-2.1794 1.1581-2.9612 0.77205-0.78183 1.7444-1.1728 2.9172-1.1728 0.56682 0 1.9301 0.42023 4.09 1.2607 2.1598 0.84046 4.1779 1.2607 6.0543 1.2607 2.3455 0 4.1632-0.69388 5.4533-2.0816 1.29-1.3878 1.935-3.3521 1.935-5.893-2e-5 -0.11727-0.01-0.30296-0.0293-0.55706-0.0196-0.25409-0.0293-0.44955-0.0293-0.58637zm-12.49-12.021c-1e-5 2.365 0.57659 4.2805 1.7298 5.7465 1.1532 1.4659 2.6387 2.1989 4.4564 2.1989 1.8177 1e-5 3.313-0.73784 4.4858-2.2136 1.1727-1.4757 1.7591-3.3863 1.7591-5.7318-3e-5 -2.2868-0.5864-4.1486-1.7591-5.5852-1.1728-1.4366-2.668-2.1549-4.4858-2.1549-1.8178 3e-5 -3.3033 0.71833-4.4564 2.1549-1.1532 1.4366-1.7298 3.2984-1.7298 5.5852z"/>
   <path id="path3007" d="m658.63 747.79v-12.607c-1e-5 -2.3259 0.39091-4.0508 1.1727-5.1748 0.78183-1.1238 1.9741-1.6858 3.5769-1.6858 1.5832 3e-5 2.7608 0.56197 3.5329 1.6858 0.77204 1.1239 1.1581 2.8488 1.1581 5.1748v10.672c-1e-5 2.5214 0.38113 4.305 1.1434 5.3507 0.76227 1.0457 2.0034 1.5686 3.7235 1.5686 1.72 0 2.9612-0.52285 3.7235-1.5686 0.76226-1.0457 1.1434-2.8292 1.1434-5.3507v-10.672c-2e-5 -2.3259 0.38601-4.0508 1.1581-5.1748 0.77203-1.1238 1.9692-1.6858 3.5915-1.6858 1.5832 3e-5 2.7559 0.55709 3.5182 1.6712 0.76225 1.1141 1.1434 2.844 1.1434 5.1894v12.607c-3e-5 4.4955-1.2216 7.9307-3.6648 10.306-2.4432 2.3748-5.981 3.5622-10.613 3.5622-4.6324 0-8.175-1.1874-10.628-3.5622-2.453-2.3748-3.6795-5.81-3.6795-10.306z"/>
   <path id="path3009" d="m693.67 754.21v-19.028c0-2.3259 0.38603-4.0508 1.1581-5.1748 0.77205-1.1238 1.9595-1.6858 3.5622-1.6858 0.95773 3e-5 1.808 0.24924 2.5507 0.74763 0.74273 0.49844 1.3975 1.2558 1.9644 2.2722 0.97727-1.0554 2.0132-1.8519 3.1078-2.3895 1.0946-0.53748 2.1989-0.80623 3.313-0.80626 1.3096 3e-5 2.4383 0.46424 3.3863 1.3926 0.94795 0.92846 1.4219 2.0279 1.422 3.2984-2e-5 1.896-1.7396 3.4792-5.2187 4.7496-1.251 0.44958-2.1892 0.82095-2.8146 1.1141-1.1923 0.56684-1.9839 1.1972-2.3748 1.891-0.39093 0.6939-0.58639 1.9497-0.58637 3.7674v9.8511c-2e-5 2.326-0.39093 4.0558-1.1728 5.1894-0.78184 1.1337-1.9741 1.7005-3.5769 1.7005-1.6028 0-2.7902-0.56682-3.5622-1.7005-0.77206-1.1336-1.1581-2.8635-1.1581-5.1894z"/>
   <g id="g3797">
    <path id="path3001" d="m563.34 754.21c-1e-5 2.3455-0.38115 4.0802-1.1434 5.2041-0.76229 1.1239-1.935 1.6858-3.5182 1.6858-1.6028 0-2.795-0.56682-3.5769-1.7005-0.78183-1.1336-1.1728-2.8635-1.1728-5.1894v-19.028c0-2.3259 0.38603-4.0508 1.1581-5.1748 0.77206-1.1238 1.9692-1.6858 3.5915-1.6858 1.5832 3e-5 2.756 0.56197 3.5182 1.6858 0.76228 1.1239 1.1434 2.8488 1.1434 5.1748z"/>
    <path id="path3001-4" d="m553.2 720.35c-1e-5 -1.505 0.5375-2.795 1.6125-3.8701 1.075-1.075 2.365-1.6125 3.8701-1.6125 1.4855 5e-5 2.756 0.53756 3.8114 1.6125 1.0555 1.0751 1.5832 2.3651 1.5832 3.8701-1e-5 1.5246-0.52286 2.8146-1.5686 3.8701-1.0457 1.0555-2.3211 1.5832-3.8261 1.5832-1.5441 4e-5 -2.8439-0.5277-3.8994-1.5832-1.0555-1.0554-1.5832-2.3454-1.5832-3.8701z" fill="#89c623"/>
   </g>
  </g>
 </g>
</svg>
