<svg id="Layer_1" data-name="Layer 1" xmlns="http://www.w3.org/2000/svg" xmlns:xlink="http://www.w3.org/1999/xlink" viewBox="0 0 250 250">
  <defs>
    <linearGradient id="linear-gradient" x1="58.45" y1="72.34" x2="129.46" y2="119.89" gradientUnits="userSpaceOnUse">
      <stop offset="0" stop-color="#aa4a9b"/>
      <stop offset="1" stop-color="#f05922"/>
    </linearGradient>
    <linearGradient id="linear-gradient-2" x1="82.02" y1="185.15" x2="193.26" y2="125.75" gradientUnits="userSpaceOnUse">
      <stop offset="0" stop-color="#ffe42e"/>
      <stop offset="1" stop-color="#ed417c"/>
    </linearGradient>
    <linearGradient id="linear-gradient-3" x1="85.36" y1="179.87" x2="125.68" y2="120.83" gradientUnits="userSpaceOnUse">
      <stop offset="0" stop-color="#ffe42e"/>
      <stop offset="1" stop-color="#f05922"/>
    </linearGradient>
  </defs>
  <title>logo_Jetbrains_1</title>
  <g>
    <path d="M135,123.08L72.33,68.58A11,11,0,1,0,59.51,86.24L130,130l0.32,0.2A4.26,4.26,0,0,0,135,123.08Z" fill="url(#linear-gradient)"/>
    <path d="M196.32,131.79a15.56,15.56,0,0,0-23.62-12.68l-88,50.09-0.15.08a7.89,7.89,0,1,0,6.15,14.54l95.88-37,0.24-.1A15.56,15.56,0,0,0,196.32,131.79Z" fill="url(#linear-gradient-2)"/>
    <path d="M125.45,129.46a4.26,4.26,0,0,0-7.23-4.46L81.07,172.14l-0.08.16a7.89,7.89,0,1,0,13.67,7.82l30.53-50.24A4.3,4.3,0,0,0,125.45,129.46Z" fill="url(#linear-gradient-3)"/>
    <g>
      <rect x="99.17" y="101.16" width="51.02" height="51.02"/>
      <rect x="103.57" y="142.61" width="19.13" height="3.19" fill="#fff"/>
      <g>
        <path d="M103.36,114.59l1.48-1.4a1.68,1.68,0,0,0,1.31.77,1,1,0,0,0,.94-1.16v-5.26h2.29v5.27a3.09,3.09,0,0,1-.82,2.34,3.13,3.13,0,0,1-2.28.84A3.4,3.4,0,0,1,103.36,114.59Z" fill="#fff"/>
        <path d="M109.91,107.54h6.69v1.95h-4.41v1.27h4v1.82h-4v1.32h4.47v2h-6.75v-8.32Z" fill="#fff"/>
        <path d="M119.62,109.56h-2.48v-2h7.28v2h-2.49v6.3h-2.3v-6.3Z" fill="#fff"/>
        <path d="M103.57,117.8h4.26a3.11,3.11,0,0,1,2.27.74,1.87,1.87,0,0,1,.53,1.35v0a1.92,1.92,0,0,1-1.28,1.85,2,2,0,0,1,1.65,2v0c0,1.43-1.16,2.29-3.15,2.29h-4.29V117.8Zm4.8,2.57c0-.46-0.37-0.71-1-0.71h-1.51v1.46h1.45c0.7,0,1.1-.24,1.1-0.72v0Zm-0.8,2.36h-1.76v1.53h1.78c0.71,0,1.1-.27,1.1-0.76v0C108.7,123,108.35,122.73,107.57,122.73Z" fill="#fff"/>
        <path d="M111.35,117.8h3.93a3.68,3.68,0,0,1,2.71.89,2.6,2.6,0,0,1,.74,1.94v0a2.63,2.63,0,0,1-1.71,2.57l2,2.9h-2.65l-1.68-2.52h-1v2.52h-2.3V117.8Zm3.84,4a1,1,0,0,0,1.24-1v0a1,1,0,0,0-1.25-1h-1.52v2h1.53Z" fill="#fff"/>
        <path d="M121.43,117.74h2.22l3.54,8.38h-2.47l-0.59-1.5H120.9l-0.59,1.5H117.9Zm2,5.08-0.93-2.35-0.94,2.35h1.87Z" fill="#fff"/>
        <path d="M127.46,117.8h2.3v8.32h-2.3V117.8Z" fill="#fff"/>
        <path d="M130.34,117.8h2.15l3.42,4.4v-4.4h2.28v8.32h-2l-3.56-4.56v4.56h-2.28V117.8Z" fill="#fff"/>
        <path d="M138.33,124.88l1.28-1.53a4.31,4.31,0,0,0,2.7,1c0.63,0,1-.21,1-0.57v0c0-.36-0.27-0.53-1.41-0.81-1.77-.4-3.14-0.9-3.14-2.6v0c0-1.54,1.22-2.66,3.22-2.66a5.23,5.23,0,0,1,3.42,1.1l-1.15,1.63a4.08,4.08,0,0,0-2.33-.82c-0.56,0-.83.23-0.83,0.53v0c0,0.38.29,0.55,1.45,0.81,1.9,0.42,3.09,1,3.09,2.59v0c0,1.7-1.34,2.71-3.36,2.71A5.83,5.83,0,0,1,138.33,124.88Z" fill="#fff"/>
      </g>
    </g>
  </g>
</svg>
