<?xml version="1.0" encoding="UTF-8"?>
<svg id="Layer_1" data-name="Layer 1" viewBox="0 0 250 250" xmlns="http://www.w3.org/2000/svg">
 <defs>
  <linearGradient id="linear-gradient" x1="58.45" x2="129.46" y1="72.34" y2="119.89" gradientUnits="userSpaceOnUse">
   <stop stop-color="#aa4a9b" offset="0"/>
   <stop stop-color="#f05922" offset="1"/>
  </linearGradient>
  <linearGradient id="linear-gradient-2" x1="82.02" x2="193.26" y1="185.15" y2="125.75" gradientUnits="userSpaceOnUse">
   <stop stop-color="#ffe42e" offset="0"/>
   <stop stop-color="#ed417c" offset="1"/>
  </linearGradient>
  <linearGradient id="linear-gradient-3" x1="85.36" x2="125.68" y1="179.87" y2="120.83" gradientUnits="userSpaceOnUse">
   <stop stop-color="#ffe42e" offset="0"/>
   <stop stop-color="#f05922" offset="1"/>
  </linearGradient>
 </defs>
 <title>logo_Jetbrains_1</title>
 <path d="M135,123.08L72.33,68.58A11,11,0,1,0,59.51,86.24L130,130l0.32,0.2A4.26,4.26,0,0,0,135,123.08Z" fill="url(#linear-gradient)"/>
 <path d="m196.32 131.79a15.56 15.56 0 0 0-23.62-12.68l-88 50.09-0.15 0.08a7.89 7.89 0 1 0 6.15 14.54l95.88-37 0.24-0.1a15.56 15.56 0 0 0 9.5-14.93z" fill="url(#linear-gradient-2)"/>
 <path d="m125.45 129.46a4.26 4.26 0 0 0-7.23-4.46l-37.15 47.14-0.08 0.16a7.89 7.89 0 1 0 13.67 7.82l30.53-50.24a4.3 4.3 0 0 0 0.26-0.42z" fill="url(#linear-gradient-3)"/>
 <rect x="99.17" y="101.16" width="51.02" height="51.02"/>
 <rect x="103.57" y="142.61" width="19.13" height="3.19" fill="#fff"/>
 <g fill="#fff">
  <path d="M103.36,114.59l1.48-1.4a1.68,1.68,0,0,0,1.31.77,1,1,0,0,0,.94-1.16v-5.26h2.29v5.27a3.09,3.09,0,0,1-.82,2.34,3.13,3.13,0,0,1-2.28.84A3.4,3.4,0,0,1,103.36,114.59Z"/>
  <path d="m109.91 107.54h6.69v1.95h-4.41v1.27h4v1.82h-4v1.32h4.47v2h-6.75v-8.32z"/>
  <path d="m119.62 109.56h-2.48v-2h7.28v2h-2.49v6.3h-2.3v-6.3z"/>
  <path d="m103.57 117.8h4.26a3.11 3.11 0 0 1 2.27 0.74 1.87 1.87 0 0 1 0.53 1.35 1.92 1.92 0 0 1-1.28 1.85 2 2 0 0 1 1.65 2c0 1.43-1.16 2.29-3.15 2.29h-4.29v-8.23zm4.8 2.57c0-0.46-0.37-0.71-1-0.71h-1.51v1.46h1.45c0.7 0 1.1-0.24 1.1-0.72zm-0.8 2.36h-1.76v1.53h1.78c0.71 0 1.1-0.27 1.1-0.76 0.01-0.5-0.34-0.77-1.12-0.77z"/>
  <path d="m111.35 117.8h3.93a3.68 3.68 0 0 1 2.71 0.89 2.6 2.6 0 0 1 0.74 1.94 2.63 2.63 0 0 1-1.71 2.57l2 2.9h-2.65l-1.68-2.52h-1v2.52h-2.3v-8.3zm3.84 4a1 1 0 0 0 1.24-1 1 1 0 0 0-1.25-1h-1.52v2h1.53z"/>
  <path d="m121.43 117.74h2.22l3.54 8.38h-2.47l-0.59-1.5h-3.23l-0.59 1.5h-2.41zm2 5.08-0.93-2.35-0.94 2.35h1.87z"/>
  <path d="m127.46 117.8h2.3v8.32h-2.3v-8.32z"/>
  <path d="m130.34 117.8h2.15l3.42 4.4v-4.4h2.28v8.32h-2l-3.56-4.56v4.56h-2.28v-8.32z"/>
  <path d="m138.33 124.88 1.28-1.53a4.31 4.31 0 0 0 2.7 1c0.63 0 1-0.21 1-0.57s-0.27-0.53-1.41-0.81c-1.77-0.4-3.14-0.9-3.14-2.6 0-1.54 1.22-2.66 3.22-2.66a5.23 5.23 0 0 1 3.42 1.1l-1.15 1.63a4.08 4.08 0 0 0-2.33-0.82c-0.56 0-0.83 0.23-0.83 0.53 0 0.38 0.29 0.55 1.45 0.81 1.9 0.42 3.09 1 3.09 2.59 0 1.7-1.34 2.71-3.36 2.71a5.83 5.83 0 0 1-3.94-1.38z"/>
 </g>
</svg>
