<?xml version="1.0" encoding="UTF-8"?>
<!-- Created with Inkscape (http://www.inkscape.org/) -->
<svg id="svg8" width="52.917mm" height="15.245mm" version="1.1" viewBox="0 0 52.917 15.245" xmlns="http://www.w3.org/2000/svg" xmlns:cc="http://creativecommons.org/ns#" xmlns:dc="http://purl.org/dc/elements/1.1/" xmlns:rdf="http://www.w3.org/1999/02/22-rdf-syntax-ns#">
 <metadata id="metadata5">
  <rdf:RDF>
   <cc:Work rdf:about="">
    <dc:format>image/svg+xml</dc:format>
    <dc:type rdf:resource="http://purl.org/dc/dcmitype/StillImage"/>
    <dc:title/>
   </cc:Work>
  </rdf:RDF>
 </metadata>
 <g id="layer1" transform="translate(677.93 -313.85)">
  <g id="layer1-1" transform="matrix(.039782 0 0 .039782 -658.51 317.36)">
   <path id="path21" d="m-259.19 274.58c63.564-11.229 116.06-20.52 116.67-20.648l1.0963-0.2325-60.01-71.38c-33.006-39.259-60.01-71.532-60.01-71.719 0-0.35223 61.966-170.99 62.314-171.6 0.11647-0.20297 42.286 72.601 102.22 176.48 56.113 97.256 102.38 177.44 102.81 178.19l0.78184 1.3662-381.43-0.0491 115.57-20.416zm731.38-17.263c-29.031-1.8613-45.915-18.392-50.39-49.334-1.1902-8.2311-1.1948-8.4447-1.3166-61.881l-0.11789-51.717h25.697l0.10118 50.024c0.0912 45.085 0.14842 50.371 0.57946 53.543 1.7494 12.872 5.232 21.528 11.161 27.741 4.7453 4.9724 10.3 7.8839 17.99 9.4288 3.6278 0.72884 13.948 0.7303 17.256 3e-3 7.7959-1.7156 14.044-5.1081 19.556-10.618 6.2825-6.2801 10.93-15.19 13.179-25.266l0.75793-3.3959 0.0844-50.447 0.0844-50.447h26.235v158.61h-25.964v-12.582c0-8.5493-0.0937-12.551-0.29222-12.485-0.16069 0.0536-0.82744 1.0736-1.4817 2.2667-4.4737 8.159-11.927 15.62-20.095 20.116-9.7902 5.3883-19.609 7.3042-33.023 6.4441zm294.67-0.12816c-10.248-0.7703-21.038-4.2936-29.858-9.7491-18.589-11.499-29.588-30.452-32.808-56.535-1.1144-9.0258-1.2484-21.15-0.3184-28.819 2.0779-17.137 8.8118-33.96 18.401-45.97 2.4582-3.0788 8.035-8.6555 11.114-11.114 8.3138-6.6379 18.038-11.28 28.363-13.538 6.0158-1.316 16.61-1.9339 23.001-1.3416 16.056 1.488 30.771 9.0476 40.773 20.946 10.162 12.088 15.747 28.98 16.46 49.78 0.11179 3.2597 0.13889 8.9747 0.0603 12.7l-0.143 6.7733-112.47 0.1424v2.5094c0 7.6392 1.8572 16.34 5.068 23.743 2.7688 6.3837 7.5348 13.355 11.437 16.728 8.0013 6.9169 17.794 11.057 28.509 12.053 3.9732 0.3694 14.099-0.0195 18.627-0.7152 12.918-1.9852 25.199-7.052 35.117-14.488 1.1669-0.87486 2.2836-1.6922 2.4815-1.8164 0.28968-0.18164 0.35814 2.1041 0.35081 11.712l-9e-3 11.938-2.6574 1.6436c-11.22 6.9391-24.073 11.395-37.682 13.063-4.0614 0.49775-18.964 0.71949-23.821 0.35441zm48.939-100.69c0-12.796-5.3924-27.011-13.023-34.33-5.4459-5.2237-12.029-8.416-19.856-9.6282-3.7026-0.5735-11.506-0.35262-15.41 0.43617-8.2523 1.6675-15.078 5.2954-21.032 11.178-6.2656 6.1913-10.963 13.711-13.918 22.279-1.0623 3.0809-2.3049 8.139-2.6906 10.953l-0.18376 1.3406h86.112zm-762.79 96.702c0.06587-0.19403 19.161-50.359 42.434-111.48l42.314-111.12 27.192-0.00169 1.128 2.8928c3.4472 8.8401 84.71 219.82 84.71 219.93 0 0.0722-6.5088 0.13039-14.464 0.12923l-14.464-3e-3 -23.424-62.366-94.318-0.00113-0.40982 1.0583c-0.22538 0.58208-5.2294 14.613-11.12 31.181l-10.71 30.122-14.494 5e-3c-11.473 4e-3 -14.469-0.0686-14.374-0.34784zm136.82-85.815c0-0.0494-7.8819-21.417-17.515-47.484-18.022-48.766-19.031-51.7-20.455-59.53-0.66771-3.6712-1.0056-3.7732-1.4019-0.42333-0.2833 2.3945-1.5117 7.7524-2.4587 10.724-0.46988 1.4746-8.5858 23.75-18.035 49.5-9.4495 25.751-17.181 46.928-17.181 47.061 0 0.13279 17.336 0.24143 38.523 0.24143s38.523-0.0404 38.523-0.0899zm69.709 82.106v-4.0613l93.969-129.18-85.079-0.28222-0.1478-21.59h123.06v7.2921l-46.99 64.942c-25.844 35.718-46.99 65.002-46.99 65.075 0 0.0734 20.892 0.13352 46.426 0.13352h46.426v21.731h-130.67zm344.78 3.8731c-0.10349-0.10346-0.18816-35.917-0.18816-79.587v-79.399h25.682v16.369c0 9.0029 0.10947 16.369 0.2433 16.369s0.75881-1.4737 1.3888-3.2748c2.8871-8.2536 7.8939-15.966 14.344-22.095 5.811-5.5217 12.452-8.8236 20.289-10.087 2.2013-0.35497 4.064-0.42274 8.4667-0.30806 5.5292 0.14402 8.42 0.54819 11.783 1.6474l1.0583 0.34594v26.658l-3.0339-1.5187c-5.3592-2.6827-10.647-3.7443-17.004-3.4138-4.1371 0.21513-6.8525 0.74636-10.16 1.9877-6.8052 2.554-12.325 7.062-16.182 13.216-5.5837 8.9082-9.5661 20.359-10.741 30.883-0.21079 1.8886-0.33508 17.27-0.38459 47.593l-0.0731 44.803h-12.65c-6.9577 0-12.735-0.0847-12.839-0.18816zm-1092.4-0.55758c0-0.1005 28.277-49.186 62.837-109.08l62.837-108.9 73.229-61.454c40.276-33.8 73.337-61.495 73.47-61.546 0.13255-0.0505-0.39727 1.283-1.1774 2.9633s-36.562 78.43-79.516 170.55l-78.098 167.5-56.79 0.0712c-31.235 0.0392-56.79-0.011-56.79-0.11142z" fill="#0089d6" stroke-width=".28222"/>
  </g>
 </g>
</svg>
