<?xml version="1.0" encoding="UTF-8" standalone="no"?>
<!-- Generator: Adobe Illustrator 21.1.0, SVG Export Plug-In . SVG Version: 6.00 Build 0)  -->

<svg
   xmlns:dc="http://purl.org/dc/elements/1.1/"
   xmlns:cc="http://creativecommons.org/ns#"
   xmlns:rdf="http://www.w3.org/1999/02/22-rdf-syntax-ns#"
   xmlns:svg="http://www.w3.org/2000/svg"
   xmlns="http://www.w3.org/2000/svg"
   xmlns:sodipodi="http://sodipodi.sourceforge.net/DTD/sodipodi-0.dtd"
   xmlns:inkscape="http://www.inkscape.org/namespaces/inkscape"
   version="1.0"
   id="Ebene_1"
   x="0px"
   y="0px"
   viewBox="0 0 435 271.5"
   style="enable-background:new 0 0 435 271.5;"
   xml:space="preserve"
   sodipodi:docname="N-tv_logo-september2017.svg"
   inkscape:version="0.92.1 r15371"><metadata
     id="metadata13"><rdf:RDF><cc:Work
         rdf:about=""><dc:format>image/svg+xml</dc:format><dc:type
           rdf:resource="http://purl.org/dc/dcmitype/StillImage" /></cc:Work></rdf:RDF></metadata><defs
     id="defs11" /><sodipodi:namedview
     pagecolor="#ffffff"
     bordercolor="#666666"
     borderopacity="1"
     objecttolerance="10"
     gridtolerance="10"
     guidetolerance="10"
     inkscape:pageopacity="0"
     inkscape:pageshadow="2"
     inkscape:window-width="1920"
     inkscape:window-height="1001"
     id="namedview9"
     showgrid="false"
     inkscape:zoom="2.458596"
     inkscape:cx="242.82874"
     inkscape:cy="147.13004"
     inkscape:window-x="-9"
     inkscape:window-y="-9"
     inkscape:window-maximized="1"
     inkscape:current-layer="Ebene_1" /><style
     type="text/css"
     id="style2">
	.st0{fill:#D61F2C;}
</style><rect
     style="fill:#ffffff;fill-opacity:1;stroke:none;stroke-width:1.17073965;stroke-opacity:1"
     id="rect15"
     width="435"
     height="271.5"
     x="0"
     y="-1.0658141e-014" /><g
     id="g6"><path
       class="st0"
       d="M0,0v271.5h435V0H0z M172.3,203.7c0,1.7,0,3.2-2.5,3.2c-11.7-0.1-23.5-0.1-35.2-0.1c-0.2,0-0.5-0.2-1.2-0.5   c0-1.5,0-3.2,0-4.9c0-23.2,0-46.5,0-69.7c0-8.7-1.7-10.5-10.5-10.5c-6.2,0-12.5,0.2-18.7-0.1c-3.7-0.2-4.9,0.7-4.9,4.7   c0.2,25.4,0.1,50.7,0.1,76.1c0,5,0,5-5.1,5c-10.1,0-20.2-0.1-30.4,0c-2.6,0-3.5-0.8-3.5-3.4c0.1-38.9,0.1-77.7,0-116.6   c0-2.4,0.7-3.3,3.2-3.3c27,0.1,54-0.1,81,0.1c15.9,0.2,27.5,11.8,27.6,27.7C172.5,142.2,172.3,173,172.3,203.7z M371.6,107   c-12.6,32.2-25.2,64.5-37.7,96.7c-1,2.5-2.2,3.4-4.9,3.4c-10.5-0.1-21-0.2-31.5,0c-3.3,0.1-4.5-1.2-5.6-4   c-10-25.9-20.1-51.7-30.1-77.5c-1.3-3.3-2.9-4.6-6.5-4.4c-7.1,0.3-14.2,0.2-21.4,0c-2.4,0-3.6,0.5-3.6,3.3   c0.1,13.2,0,26.5,0.1,39.7c0,5.9,2.3,8,8.3,8.1c3.7,0.1,7.5,0.1,11.2,0c2.4-0.1,3.4,0.6,3.3,3.2c-0.1,10-0.1,20,0,30   c0,2.3-0.7,3.4-3.2,3.4c-10.1-0.1-20.3,0.3-30.4-0.2c-17.7-0.8-28.3-12-28.4-29.7c-0.1-43.7,0-87.5-0.1-131.2   c0-2.6,0.8-3.7,3.4-4.2c11.6-2.2,23.2-4.5,35.5-7c0,15.9,0,31.3,0,47.2c2,0,3.5,0,4.9,0c16.1,0,32.2,0.1,48.4-0.1   c3.2,0,4.5,1.1,5.5,4c7.4,21.6,14.9,43.2,22.4,64.8c0.3,0.9,0.7,1.8,1.5,3.8c1.1-2.9,2-5,2.7-7.2c7.2-20.6,14.4-41.3,21.4-62   c0.9-2.6,2.1-3.4,4.8-3.4c12.6,0.1,25.2,0.1,38.6,0.1C377.5,91.9,374.6,99.5,371.6,107z"
       id="path4" /></g></svg>