<?xml version="1.0" encoding="UTF-8"?>
<!-- Created with Inkscape (http://www.inkscape.org/) -->
<svg id="svg2383" width="552.75" height="534.22" version="1.0" xmlns="http://www.w3.org/2000/svg" xmlns:cc="http://creativecommons.org/ns#" xmlns:dc="http://purl.org/dc/elements/1.1/" xmlns:rdf="http://www.w3.org/1999/02/22-rdf-syntax-ns#">
 <metadata id="metadata2388">
  <rdf:RDF>
   <cc:Work rdf:about="">
    <dc:format>image/svg+xml</dc:format>
    <dc:type rdf:resource="http://purl.org/dc/dcmitype/StillImage"/>
    <dc:title/>
   </cc:Work>
  </rdf:RDF>
 </metadata>
 <g id="layer1" transform="translate(-157.03 -25.949)">
  <g id="g2476" transform="matrix(1.1858 0 0 1.1858 4.6131 -328.86)">
   <g id="g1988" transform="translate(3.5356 3.5349)" fill="#04256c">
    <path id="path26" d="m158.74 490.75c0 88.227 64.052 161.34 157.08 161.34 92.528 0 156.58-73.112 156.58-161.34 0-93.655-62.882-161.34-156.58-161.34-94.198 0-157.08 67.684-157.08 161.34m60.461 0c0-58.615 35.658-115.41 96.62-115.41 60.461 0 96.119 56.795 96.119 115.41 0 54.991-29.562 115.42-96.119 115.42-67.058 0-96.62-60.427-96.62-115.42" fill-rule="evenodd"/>
    <path id="path28" d="m557.41 712.46v-21.512h-55.701c22.297-21.896 51.358-48.485 51.358-77.421 0-26.79-16.785-39.884-42.757-39.884-13.863 0-28.143 3.5241-40.502 9.7789l2.1713 22.681c8.9355-5.8707 19.959-10.956 31.483-10.956 11.107 0 22.297 5.8707 22.297 18.38 0 25.028-46.348 63.743-59.041 76.06v22.873h90.691"/>
   </g>
  </g>
 </g>
</svg>
