<?xml version="1.0" encoding="UTF-8"?>
<!-- Created with Inkscape (http://www.inkscape.org/) -->
<svg id="svg2" width="751.18" height="182.83" version="1.1" xmlns="http://www.w3.org/2000/svg" xmlns:cc="http://creativecommons.org/ns#" xmlns:dc="http://purl.org/dc/elements/1.1/" xmlns:rdf="http://www.w3.org/1999/02/22-rdf-syntax-ns#">
 <title id="title5158">OneDrive logo</title>
 <metadata id="metadata7">
  <rdf:RDF>
   <cc:Work rdf:about="">
    <dc:format>image/svg+xml</dc:format>
    <dc:type rdf:resource="http://purl.org/dc/dcmitype/StillImage"/>
    <dc:title>OneDrive logo</dc:title>
   </cc:Work>
  </rdf:RDF>
 </metadata>
 <g id="layer1" transform="translate(296.64 -173.78)">
  <g id="g3986" transform="translate(222.86 -11.429)">
   <g id="text3027" transform="translate(-339.29 -4.2857)" fill="#094ab1">
    <path id="path3010" d="m-111.32 348.11c-17.871 0-32.183-5.8887-42.935-17.666-10.752-11.777-16.128-27.1-16.128-45.967-1e-5 -20.273 5.4785-36.445 16.436-48.516 10.957-12.07 25.869-18.105 44.736-18.105 17.402 1.3e-4 31.421 5.8595 42.056 17.578 10.635 11.719 15.952 27.041 15.952 45.967-1.27e-4 20.566-5.4493 36.826-16.348 48.779-10.899 11.953-25.488 17.93-43.77 17.93zm1.0547-116.89c-13.242 1.1e-4 -23.994 4.7755-32.256 14.326-8.2618 9.5509-12.393 22.09-12.393 37.617-2e-5 15.527 4.0283 28.022 12.085 37.485 8.0566 9.4629 18.56 14.194 31.509 14.194 13.828 1e-5 24.726-4.5117 32.695-13.535 7.9686-9.0234 11.953-21.65 11.953-37.881-1.12e-4 -16.641-3.8673-29.502-11.602-38.584-7.7345-9.0819-18.399-13.623-31.992-13.623z"/>
    <path id="path3012" d="m46.357 346h-14.414v-51.328c-7.4e-5 -19.101-6.9727-28.652-20.918-28.652-7.2071 8e-5 -13.169 2.71-17.886 8.1299-4.7168 5.42-7.0752 12.261-7.0752 20.522v51.328h-14.414v-90h14.414v14.941h0.35156c6.7968-11.367 16.641-17.051 29.531-17.051 9.8437 9e-5 17.373 3.1788 22.588 9.5361 5.2148 6.3575 7.8222 15.542 7.8223 27.554z"/>
    <path id="path3014" d="m145.94 304.61h-63.545c0.23435 10.02 2.9297 17.754 8.0859 23.203 5.1562 5.4492 12.246 8.1738 21.27 8.1738 10.137 1e-5 19.453-3.3398 27.949-10.02v13.535c-7.9102 5.7422-18.369 8.6133-31.377 8.6133-12.715 0-22.705-4.0869-29.971-12.261-7.2656-8.1738-10.898-19.673-10.898-34.497-8e-6 -14.004 3.9697-25.415 11.909-34.233 7.9394-8.8183 17.798-13.227 29.575-13.228 11.777 9e-5 20.889 3.8087 27.334 11.426 6.4452 7.6173 9.6679 18.193 9.668 31.729zm-14.766-12.217c-0.0587-8.3202-2.0655-14.795-6.0205-19.424-3.9551-4.6288-9.4483-6.9433-16.479-6.9434-6.7969 8e-5 -12.568 2.4317-17.314 7.2949-4.7461 4.8634-7.6758 11.221-8.7891 19.072z"/>
    <path id="path3016" d="m169.76 346v-126.04h34.805c44.414 1.2e-4 66.621 20.479 66.621 61.436-1.2e-4 19.453-6.1671 35.083-18.501 46.89-12.334 11.807-28.843 17.71-49.526 17.71zm14.766-112.68v99.316h18.809c16.523 1e-5 29.385-4.4238 38.584-13.271 9.1991-8.8476 13.799-21.387 13.799-37.617-1e-4 -32.285-17.168-48.428-51.504-48.428z"/>
    <path id="path3018" d="m340.97 270.59c-2.5196-1.9335-6.1524-2.9003-10.898-2.9004-6.1524 8e-5 -11.294 2.9005-15.425 8.7012-4.1309 5.8008-6.1963 13.711-6.1963 23.73v45.879h-14.414v-90h14.414v18.545h0.35156c2.0508-6.328 5.1855-11.265 9.4043-14.81 4.2187-3.5448 8.9355-5.3173 14.15-5.3174 3.7499 1e-4 6.621 0.41025 8.6133 1.2305z"/>
    <path id="path3020" d="m363.99 233.15c-2.5781 1.2e-4 -4.7754-0.87879-6.5918-2.6367-1.8164-1.7577-2.7246-3.9842-2.7246-6.6797-2e-5 -2.6952 0.90819-4.9364 2.7246-6.7236 1.8164-1.787 4.0137-2.6805 6.5918-2.6807 2.6367 1.3e-4 4.8779 0.89368 6.7236 2.6807 1.8457 1.7872 2.7685 4.0284 2.7686 6.7236-3e-5 2.5782-0.92288 4.7755-2.7686 6.5918-1.8457 1.8165-4.0869 2.7247-6.7236 2.7246zm7.0312 112.85h-14.414v-90h14.414z"/>
    <path id="path3022" d="m470.96 256-35.859 90h-14.15l-34.102-90h15.82l22.852 65.391c1.6992 4.8047 2.7539 8.9942 3.1641 12.568h0.35156c0.5859-4.5117 1.5234-8.584 2.8125-12.217l23.906-65.742z"/>
    <path id="path3024" d="m558.67 304.61h-63.545c0.23436 10.02 2.9297 17.754 8.0859 23.203 5.1562 5.4492 12.246 8.1738 21.27 8.1738 10.137 1e-5 19.453-3.3398 27.949-10.02v13.535c-7.9102 5.7422-18.369 8.6133-31.377 8.6133-12.715 0-22.705-4.0869-29.971-12.261-7.2656-8.1738-10.898-19.673-10.898-34.497-1e-5 -14.004 3.9697-25.415 11.909-34.233 7.9394-8.8183 17.798-13.227 29.575-13.228 11.777 9e-5 20.889 3.8087 27.334 11.426 6.4452 7.6173 9.6679 18.193 9.668 31.729zm-14.766-12.217c-0.0587-8.3202-2.0655-14.795-6.0205-19.424-3.9551-4.6288-9.4483-6.9433-16.479-6.9434-6.7969 8e-5 -12.568 2.4317-17.314 7.2949-4.7461 4.8634-7.6758 11.221-8.7891 19.072z"/>
   </g>
  </g>
 </g>
</svg>
