<?xml version="1.0" encoding="UTF-8" ?>
<!DOCTYPE svg PUBLIC "-//W3C//DTD SVG 1.1//EN" "http://www.w3.org/Graphics/SVG/1.1/DTD/svg11.dtd">
<svg width="1344pt" height="512pt" viewBox="0 0 1344 512" version="1.1" xmlns="http://www.w3.org/2000/svg">
<g id="#ffffffff">
</g>
<g id="#f15a23ff">
<path fill="#f15a23" opacity="1.00" d=" M 180.92 23.91 C 183.51 22.47 187.34 23.54 188.23 26.53 C 189.19 29.00 187.53 31.26 186.17 33.17 C 176.54 46.82 170.15 62.68 167.13 79.09 C 165.30 79.87 164.77 81.79 165.34 83.60 C 166.24 83.93 167.15 84.22 168.07 84.50 C 186.76 82.86 205.72 83.20 224.12 87.13 C 257.60 93.87 288.89 110.81 312.94 135.03 C 336.92 159.00 353.75 190.06 360.56 223.29 C 368.11 259.27 363.89 297.57 348.79 331.08 C 316.77 399.51 262.79 457.39 196.74 494.08 C 194.61 495.07 191.54 495.11 190.08 492.99 C 188.36 490.77 189.07 487.61 190.77 485.59 C 199.68 473.16 205.90 458.87 209.28 443.97 C 209.93 440.88 210.82 437.75 210.55 434.57 C 209.46 433.15 207.66 433.58 206.13 433.63 C 174.07 436.84 141.08 431.11 112.11 416.95 C 81.08 402.00 54.75 377.56 37.34 347.85 C 21.21 320.52 12.73 288.69 13.32 256.94 C 13.43 227.80 21.38 198.90 35.38 173.39 C 67.97 110.82 119.14 58.02 180.92 23.91 M 179.12 191.12 C 160.05 193.68 142.46 204.88 131.78 220.84 C 124.55 231.80 120.17 244.82 120.26 258.00 C 119.72 275.66 126.76 293.35 138.96 306.07 C 149.62 317.55 164.43 325.03 179.96 327.03 C 195.77 329.12 212.28 325.42 225.67 316.73 C 239.28 308.09 249.65 294.45 254.29 279.00 C 263.00 252.18 252.56 220.76 229.84 204.19 C 215.57 193.33 196.86 188.51 179.12 191.12 Z" />
</g>
<g id="#6d6e70ff">
<path fill="#6d6e70" opacity="1.00" d=" M 790.44 125.48 C 802.80 121.98 816.97 127.28 823.87 138.13 C 828.90 145.62 830.13 155.37 827.55 163.97 C 824.24 174.88 814.34 183.54 802.98 185.03 C 791.79 186.86 779.87 181.84 773.45 172.47 C 766.59 162.92 766.10 149.30 772.24 139.27 C 776.21 132.53 782.87 127.45 790.44 125.48 Z" />
<path fill="#6d6e70" opacity="1.00" d=" M 1070.15 125.26 C 1084.10 121.69 1099.82 129.40 1105.29 142.76 C 1111.30 156.02 1106.18 173.12 1093.67 180.66 C 1086.46 185.35 1077.27 186.47 1069.03 184.27 C 1060.90 182.06 1053.90 176.21 1050.09 168.72 C 1045.67 159.98 1045.75 149.07 1050.46 140.46 C 1054.47 132.90 1061.82 127.23 1070.15 125.26 Z" />
<path fill="#6d6e70" opacity="1.00" d=" M 497.54 155.75 C 519.10 153.28 541.49 156.39 561.09 165.90 C 578.40 174.14 593.34 187.34 603.54 203.58 C 622.22 232.97 624.27 271.93 609.33 303.30 C 600.84 321.30 586.91 336.62 569.94 346.98 C 538.89 366.04 498.52 368.22 465.21 353.83 C 445.60 345.33 428.66 330.66 417.79 312.22 C 405.27 291.33 400.98 265.91 404.92 241.95 C 408.32 220.84 418.59 200.87 433.90 185.93 C 450.83 168.96 473.81 158.48 497.54 155.75 M 503.57 205.71 C 492.39 207.26 481.83 212.85 474.34 221.31 C 455.77 241.96 456.12 276.68 475.10 296.96 C 485.05 308.01 500.22 313.89 515.02 312.80 C 527.78 312.09 540.24 306.32 548.67 296.65 C 568.29 275.01 566.63 237.76 544.93 218.12 C 533.94 207.98 518.29 203.51 503.57 205.71 Z" />
<path fill="#6d6e70" opacity="1.00" d=" M 1283.99 178.01 C 1290.25 178.00 1296.50 177.99 1302.77 178.01 C 1302.73 179.42 1302.73 180.83 1302.73 182.25 C 1300.39 182.25 1298.06 182.25 1295.75 182.26 C 1295.75 188.50 1295.73 194.73 1295.78 200.97 C 1294.25 200.98 1292.74 201.00 1291.24 201.01 C 1291.25 194.76 1291.25 188.51 1291.24 182.26 C 1288.82 182.24 1286.41 182.24 1284.01 182.23 C 1283.99 180.82 1283.98 179.41 1283.99 178.01 Z" />
<path fill="#6d6e70" opacity="1.00" d=" M 1307.47 177.99 C 1309.18 178.02 1310.90 178.06 1312.64 178.13 C 1314.69 181.61 1316.87 185.02 1319.12 188.38 C 1321.43 184.97 1323.61 181.46 1325.84 177.99 C 1327.46 178.00 1329.10 178.00 1330.75 178.01 C 1330.74 185.67 1330.74 193.33 1330.75 200.99 C 1329.23 200.99 1327.73 200.99 1326.25 201.00 C 1326.23 195.85 1326.33 190.71 1326.13 185.57 C 1323.61 188.98 1321.44 192.63 1319.06 196.13 C 1316.65 192.53 1314.32 188.89 1312.00 185.25 C 1312.01 190.50 1312.00 195.75 1312.00 201.00 C 1310.48 201.00 1308.98 201.00 1307.50 201.01 C 1307.47 193.34 1307.53 185.66 1307.47 177.99 Z" />
<path fill="#6d6e70" opacity="1.00" d=" M 1010.06 188.83 C 1011.86 187.59 1013.91 186.80 1015.93 185.96 C 1018.12 186.89 1020.62 188.36 1020.47 191.11 C 1020.55 235.73 1020.48 280.37 1020.51 324.99 C 1020.18 342.21 1017.56 360.24 1007.80 374.85 C 999.14 387.97 985.05 396.74 970.05 400.81 C 950.82 406.15 930.52 406.22 910.79 404.25 C 893.23 402.32 875.94 397.65 859.95 390.12 C 857.16 389.16 855.55 385.79 857.03 383.12 C 861.32 374.04 865.72 364.98 870.18 355.98 C 871.38 352.99 875.22 352.55 877.73 354.13 C 894.97 363.01 914.67 367.43 934.05 365.62 C 943.78 364.64 953.81 360.83 959.83 352.76 C 966.40 344.29 967.12 333.09 966.77 322.78 C 958.39 332.16 948.00 340.20 935.63 343.37 C 916.45 348.20 895.11 344.50 878.87 333.12 C 865.70 323.95 856.64 309.57 852.96 294.05 C 849.95 281.24 849.79 267.75 852.44 254.87 C 855.70 239.02 864.30 224.07 877.24 214.19 C 885.63 207.69 895.67 203.34 906.14 201.58 C 912.36 200.39 918.72 200.81 925.01 200.76 C 938.02 200.74 951.03 200.79 964.04 200.72 C 965.49 200.79 967.17 200.57 968.35 201.67 C 971.62 204.43 974.42 207.71 977.54 210.65 C 988.35 203.33 999.34 196.28 1010.06 188.83 M 926.49 244.57 C 920.33 246.13 914.61 249.58 910.55 254.49 C 901.30 265.61 901.73 283.70 911.92 294.08 C 924.10 306.64 946.83 306.68 958.91 293.95 C 969.61 282.89 969.53 263.29 958.57 252.42 C 950.36 244.15 937.56 241.76 926.49 244.57 Z" />
<path fill="#6d6e70" opacity="1.00" d=" M 1213.27 205.23 C 1223.29 200.71 1234.65 200.11 1245.41 201.75 C 1256.49 203.49 1267.20 208.84 1274.44 217.54 C 1280.99 225.24 1284.69 235.03 1286.23 244.94 C 1287.56 253.21 1287.21 261.62 1287.25 269.96 C 1287.25 297.65 1287.25 325.34 1287.25 353.03 C 1287.64 356.02 1285.43 359.43 1282.14 358.99 C 1267.40 359.02 1252.66 358.99 1237.92 359.00 C 1235.08 359.38 1232.41 356.93 1232.77 354.04 C 1232.71 328.02 1232.79 301.99 1232.73 275.97 C 1232.64 268.60 1231.15 260.63 1225.79 255.19 C 1216.60 245.98 1198.95 248.08 1192.38 259.39 C 1188.91 264.90 1188.25 271.58 1188.24 277.95 C 1188.26 303.31 1188.24 328.68 1188.26 354.04 C 1188.58 356.46 1186.62 359.06 1184.09 358.96 C 1169.75 359.09 1155.40 358.92 1141.06 359.04 C 1139.08 358.94 1136.75 359.29 1135.29 357.67 C 1133.60 355.91 1133.83 353.26 1133.73 351.01 C 1133.81 304.01 1133.70 257.00 1133.78 209.99 C 1133.44 207.00 1135.92 204.21 1138.95 204.32 C 1153.31 204.14 1167.69 204.29 1182.05 204.24 C 1184.55 204.08 1187.70 205.22 1188.11 208.02 C 1188.46 213.95 1188.14 219.91 1188.24 225.85 C 1194.94 217.27 1203.19 209.61 1213.27 205.23 Z" />
<path fill="#6d6e70" opacity="1.00" d=" M 717.63 208.65 C 724.54 204.08 732.87 201.96 741.09 201.76 C 743.92 201.49 746.49 204.08 746.22 206.91 C 746.27 222.61 746.26 238.31 746.22 254.01 C 746.61 257.47 743.11 259.57 740.02 259.23 C 728.81 259.29 717.02 262.79 709.33 271.33 C 700.90 280.71 698.06 293.68 697.53 305.96 C 697.40 321.95 697.61 337.95 697.45 353.94 C 697.69 356.87 694.97 359.38 692.09 359.01 C 677.36 358.98 662.64 359.02 647.91 358.99 C 645.13 359.36 642.68 356.83 643.02 354.08 C 642.99 305.70 642.97 257.31 643.03 208.94 C 642.88 205.85 646.13 204.00 648.90 204.26 C 663.27 204.25 677.63 204.19 692.00 204.29 C 694.73 204.13 697.48 206.26 697.40 209.15 C 697.69 217.61 697.40 226.09 697.51 234.56 C 701.93 224.48 708.16 214.66 717.63 208.65 Z" />
<path fill="#6d6e70" opacity="1.00" d=" M 776.22 204.31 C 790.15 204.13 804.09 204.32 818.02 204.22 C 820.12 204.31 822.67 204.02 824.22 205.79 C 825.72 207.08 825.70 209.18 825.76 210.98 C 825.75 258.35 825.75 305.72 825.76 353.10 C 826.10 355.89 824.21 359.25 821.07 358.98 C 806.03 359.01 790.99 359.02 775.95 358.98 C 772.86 359.25 770.88 355.83 771.24 353.06 C 771.26 305.34 771.25 257.62 771.24 209.90 C 770.76 206.94 773.24 204.22 776.22 204.31 Z" />
<path fill="#6d6e70" opacity="1.00" d=" M 1054.27 204.41 C 1068.82 204.01 1083.42 204.36 1097.99 204.24 C 1100.89 203.89 1104.60 205.55 1104.46 208.91 C 1104.56 257.30 1104.48 305.70 1104.50 354.09 C 1104.76 356.57 1102.75 359.17 1100.13 358.96 C 1085.07 359.04 1070.00 359.00 1054.93 358.98 C 1052.66 359.16 1050.59 357.38 1050.30 355.16 C 1049.73 351.79 1050.04 348.35 1050.00 344.96 C 1050.02 299.95 1050.00 254.95 1050.01 209.94 C 1049.78 207.38 1051.61 204.68 1054.27 204.41 Z" />
<path fill="#6d6e70" opacity="1.00" d=" M 1055.45 421.08 C 1057.89 420.70 1060.35 420.35 1062.81 420.03 C 1062.67 439.43 1062.79 458.83 1062.75 478.24 C 1060.69 478.24 1058.64 478.24 1056.61 478.26 C 1056.44 477.14 1056.28 476.02 1056.13 474.92 C 1050.55 478.50 1043.37 480.40 1036.96 478.05 C 1032.95 476.53 1030.99 472.08 1031.02 468.02 C 1030.96 461.66 1030.99 455.29 1031.00 448.93 C 1030.91 444.59 1032.79 439.80 1037.02 438.02 C 1042.89 435.59 1049.41 437.09 1055.48 437.82 C 1055.50 432.24 1055.52 426.66 1055.45 421.08 M 1038.28 448.89 C 1038.18 454.96 1038.23 461.03 1038.25 467.10 C 1038.07 469.28 1039.10 471.72 1041.41 472.29 C 1046.52 473.67 1051.52 470.96 1055.53 468.03 C 1055.44 460.10 1055.53 452.18 1055.48 444.25 C 1051.05 443.70 1046.54 442.64 1042.09 443.43 C 1039.53 443.86 1038.16 446.47 1038.28 448.89 Z" />
<path fill="#6d6e70" opacity="1.00" d=" M 1097.00 421.04 C 1099.40 420.67 1101.82 420.32 1104.25 419.96 C 1104.25 426.39 1104.24 432.83 1104.25 439.27 C 1109.57 437.18 1115.47 435.98 1121.14 437.19 C 1125.62 438.17 1128.64 442.59 1128.71 447.06 C 1128.78 453.70 1128.82 460.34 1128.69 466.98 C 1128.59 471.73 1125.60 476.37 1120.93 477.74 C 1113.17 480.14 1104.86 478.85 1097.02 477.53 C 1096.98 458.70 1097.01 439.87 1097.00 421.04 M 1104.23 446.09 C 1104.26 454.77 1104.24 463.45 1104.24 472.14 C 1108.43 472.50 1112.76 473.24 1116.90 472.05 C 1119.26 471.47 1121.14 469.38 1121.41 466.95 C 1122.05 461.66 1121.67 456.31 1121.76 451.00 C 1121.75 448.31 1121.51 444.82 1118.60 443.64 C 1113.71 442.13 1108.74 444.35 1104.23 446.09 Z" />
<path fill="#6d6e70" opacity="1.00" d=" M 771.25 422.74 C 778.16 422.77 785.07 422.74 791.99 422.74 C 796.51 422.76 801.69 423.53 804.73 427.26 C 807.81 431.11 807.47 436.35 807.54 440.99 C 807.44 445.31 807.66 450.17 804.83 453.75 C 802.19 457.18 797.65 458.11 793.58 458.42 C 788.56 458.64 783.53 458.44 778.51 458.51 C 778.48 465.09 778.51 471.67 778.49 478.25 C 776.07 478.24 773.66 478.24 771.26 478.24 C 771.24 459.74 771.25 441.24 771.25 422.74 M 778.44 429.34 C 778.54 436.79 778.52 444.24 778.46 451.70 C 784.35 451.52 790.39 452.41 796.19 451.15 C 800.97 449.64 799.90 443.91 800.05 440.04 C 799.89 436.69 800.71 431.68 796.75 430.21 C 790.84 428.45 784.52 429.47 778.44 429.34 Z" />
<path fill="#6d6e70" opacity="1.00" d=" M 1200.54 478.25 C 1200.49 459.74 1200.45 441.23 1200.56 422.72 C 1211.45 422.79 1222.35 422.73 1233.25 422.76 C 1233.23 424.92 1233.23 427.08 1233.25 429.24 C 1224.83 429.25 1216.42 429.25 1208.01 429.24 C 1208.00 435.00 1207.97 440.76 1208.03 446.51 C 1215.84 446.48 1223.67 446.50 1231.49 446.50 C 1231.48 448.66 1231.49 450.82 1231.50 452.99 C 1223.67 453.01 1215.83 452.99 1208.00 453.00 C 1207.99 459.16 1208.00 465.33 1208.00 471.49 C 1216.50 471.50 1224.99 471.51 1233.49 471.49 C 1233.48 473.75 1233.47 476.01 1233.47 478.28 C 1222.49 478.22 1211.51 478.26 1200.54 478.25 Z" />
<path fill="#6d6e70" opacity="1.00" d=" M 1258.64 422.74 C 1261.96 422.74 1265.30 422.73 1268.64 422.85 C 1274.72 441.35 1281.09 459.76 1287.29 478.23 C 1284.78 478.25 1282.28 478.26 1279.79 478.28 C 1278.19 473.87 1276.66 469.44 1275.18 465.00 C 1267.41 465.00 1259.65 465.00 1251.90 465.00 C 1250.38 469.42 1248.95 473.86 1247.39 478.26 C 1244.88 478.25 1242.37 478.24 1239.88 478.23 C 1246.10 459.72 1252.36 441.22 1258.64 422.74 M 1253.90 458.51 C 1260.36 458.50 1266.82 458.49 1273.29 458.50 C 1269.97 448.58 1266.90 438.58 1263.60 428.66 C 1260.21 438.56 1257.11 448.55 1253.90 458.51 Z" />
<path fill="#6d6e70" opacity="1.00" d=" M 826.39 437.58 C 830.85 436.39 835.67 436.35 840.11 437.66 C 844.84 439.03 848.56 443.25 849.33 448.11 C 850.04 453.04 849.70 458.04 849.75 463.00 C 849.77 467.19 848.84 471.71 845.73 474.74 C 842.21 478.37 836.83 479.22 831.99 479.02 C 827.15 478.91 821.86 477.29 819.06 473.08 C 816.21 468.98 816.47 463.76 816.48 459.00 C 816.57 454.06 815.95 448.81 818.17 444.21 C 819.71 440.88 822.91 438.57 826.39 437.58 M 829.34 443.52 C 825.91 444.23 823.80 447.62 823.83 450.98 C 823.79 456.34 823.35 461.79 824.16 467.11 C 825.70 473.16 833.77 473.93 838.59 471.57 C 842.83 469.46 842.53 464.07 842.53 460.04 C 842.29 455.62 843.26 450.86 841.25 446.73 C 838.90 442.73 833.36 442.50 829.34 443.52 Z" />
<path fill="#6d6e70" opacity="1.00" d=" M 925.22 439.26 C 929.58 436.52 935.05 436.35 940.02 437.07 C 944.19 437.61 948.14 440.28 949.66 444.30 C 951.68 449.53 950.85 455.27 950.99 460.75 C 942.98 460.77 934.97 460.73 926.97 460.76 C 927.07 464.53 926.14 469.75 930.28 471.78 C 936.40 474.05 943.10 472.15 949.27 470.94 C 949.60 472.90 949.93 474.87 950.27 476.85 C 943.09 478.81 935.30 480.10 928.02 477.98 C 923.18 476.61 920.02 471.85 919.84 466.94 C 919.60 461.63 919.78 456.30 919.74 450.99 C 919.69 446.55 921.31 441.72 925.22 439.26 M 929.42 444.52 C 926.37 447.00 927.06 451.29 926.97 454.76 C 932.66 454.75 938.36 454.76 944.06 454.75 C 943.89 451.10 944.52 446.30 940.97 443.99 C 937.43 442.17 932.73 442.23 929.42 444.52 Z" />
<path fill="#6d6e70" opacity="1.00" d=" M 963.25 437.51 C 965.38 437.49 967.52 437.49 969.67 437.48 C 969.78 439.31 969.91 441.14 970.06 442.98 C 973.49 440.44 977.25 438.39 981.12 436.58 C 981.47 438.77 981.80 440.96 982.15 443.15 C 978.19 445.38 974.29 447.74 970.52 450.28 C 970.47 459.60 970.52 468.93 970.50 478.26 C 968.07 478.25 965.65 478.23 963.24 478.22 C 963.26 464.65 963.23 451.08 963.25 437.51 Z" />
<path fill="#6d6e70" opacity="1.00" d=" M 989.20 447.14 C 990.06 441.90 994.66 437.85 999.84 437.14 C 1005.61 436.23 1012.64 436.38 1016.83 441.07 C 1021.33 446.60 1019.72 454.19 1019.98 460.76 C 1011.97 460.75 1003.96 460.73 995.96 460.77 C 996.00 464.68 995.32 470.39 999.92 472.08 C 1006.03 473.80 1012.40 472.12 1018.47 470.99 C 1018.72 472.93 1019.00 474.87 1019.28 476.82 C 1011.87 478.91 1003.69 480.23 996.23 477.66 C 991.09 475.82 988.60 470.15 988.77 464.99 C 988.89 459.04 988.31 453.04 989.20 447.14 M 999.12 444.10 C 995.58 446.39 995.98 451.08 995.95 454.76 C 1001.65 454.74 1007.34 454.75 1013.04 454.76 C 1012.90 451.25 1013.58 446.94 1010.56 444.40 C 1007.27 442.12 1002.57 442.26 999.12 444.10 Z" />
<path fill="#6d6e70" opacity="1.00" d=" M 1135.74 437.49 C 1138.10 437.48 1140.48 437.48 1142.86 437.46 C 1146.54 448.98 1150.18 460.51 1153.82 472.04 C 1157.51 460.53 1161.21 449.01 1164.92 437.50 C 1167.31 437.49 1169.70 437.49 1172.11 437.48 C 1165.85 456.54 1159.71 475.64 1152.94 494.52 C 1150.65 494.50 1148.36 494.48 1146.09 494.46 C 1147.94 489.07 1149.78 483.68 1151.72 478.32 C 1151.00 478.29 1149.57 478.24 1148.85 478.21 C 1144.55 464.61 1139.96 451.11 1135.74 437.49 Z" />
<path fill="#6d6e70" opacity="1.00" d=" M 857.06 437.58 C 859.37 437.53 861.70 437.50 864.02 437.48 C 866.22 448.50 868.43 459.51 870.62 470.53 C 873.92 459.56 877.09 448.54 880.27 437.54 C 883.17 437.50 886.08 437.48 889.00 437.48 C 892.21 448.49 895.49 459.48 898.60 470.52 C 900.93 459.53 903.03 448.49 905.34 437.49 C 907.63 437.49 909.92 437.50 912.22 437.51 C 909.28 451.11 906.55 464.75 903.43 478.30 C 900.39 478.25 897.35 478.24 894.33 478.22 C 891.12 466.94 887.94 455.65 884.64 444.39 C 881.46 455.69 878.24 466.97 874.97 478.25 C 871.90 478.25 868.83 478.25 865.77 478.24 C 862.86 464.69 860.04 451.12 857.06 437.58 Z" />
</g>
</svg>
