<?xml version="1.0" encoding="UTF-8"?>
<svg id="svg2" width="533.33" height="84.68" version="1.1" viewBox="0 0 533.33 84.68" xml:space="preserve" xmlns="http://www.w3.org/2000/svg" xmlns:cc="http://creativecommons.org/ns#" xmlns:dc="http://purl.org/dc/elements/1.1/" xmlns:rdf="http://www.w3.org/1999/02/22-rdf-syntax-ns#"><metadata id="metadata8"><rdf:RDF><cc:Work rdf:about=""><dc:format>image/svg+xml</dc:format><dc:type rdf:resource="http://purl.org/dc/dcmitype/StillImage"/></cc:Work></rdf:RDF></metadata><g id="g10" transform="matrix(1.3333 0 0 -1.3333 0 84.68)"><g id="g12" transform="scale(.1)" fill="#484961"><path id="path14" d="m886.88 347.19c0-36.336-9.223-61.214-28.195-76.054-16.34-12.782-39.977-18.735-74.395-18.735h-57.91v184.61h57.91c69.031 0 102.59-29.383 102.59-89.825zm35.816 122.33c-34.062 25.796-83.015 38.878-145.5 38.878h-137.1v-507.5h86.281v179.41h52.238c60.535 0 108.26 12.839 141.84 38.16 37.789 28.492 56.949 72.039 56.949 129.43 0 53.204-18.41 94.122-54.715 121.62"/><path id="path16" d="m1209.8 402.03c-23.99 0-45.35-7.59-63.46-22.554-10.59-8.75-20.12-20.098-28.5-33.907l-5.22 47.95h-74.67v-392.62h84.15v227.41c5.77 22.789 27.45 90.984 79.9 90.984 12.35 0 19.34-1.227 30.33-3.973l9.72-2.429 15.57 82.433-8.65 2.164c-11.54 2.883-25.81 4.539-39.17 4.539"/><path id="path18" d="m1437.4 72.285c-58.54 0-86.99 43.531-86.99 133.08 0 46.012 7.89 80.633 23.47 102.9 14.53 20.785 35.54 30.886 64.22 30.886 28.26 0 48.94-10.058 63.23-30.754 15.29-22.152 23.05-56.582 23.05-102.32 0-90.027-28.45-133.79-86.98-133.79zm0.7 338.25c-54.22 0-99.47-20.035-130.84-57.941-30.07-36.325-45.97-87.235-45.97-147.24 0-61.074 15.78-112.25 45.64-147.98 30.88-36.953 75.99-56.488 130.47-56.488 53.91 0 98.95 20.039 130.23 57.953 30.01 36.359 45.87 87.265 45.87 147.22 0 61.129-15.66 112.29-45.26 147.95-30.7 36.969-75.7 56.512-130.14 56.512"/><path id="path20" d="m1860.8 88.609c-16.98-10.449-30.34-14.906-44.68-14.906-22.31 0-35.22 7.5039-35.22 45.856v213.92h85.14l10.78 68.551h-95.92v93.383l-84.15-10.062v-83.321h-59.57v-68.551h59.57v-214.63c0-74.961 40.15-117.95 110.15-117.95 34.04 0 65.78 9.7383 89.35 27.418l6.6 4.9492-33.63 60.527-8.42-5.1836"/><path id="path22" d="m2085.5 72.285c-58.54 0-86.99 43.531-86.99 133.08 0 46.012 7.9 80.633 23.47 102.9 14.53 20.785 35.54 30.886 64.23 30.886 28.25 0 48.93-10.058 63.22-30.754 15.3-22.152 23.05-56.582 23.05-102.32 0-90.027-28.45-133.79-86.98-133.79zm0.71 338.25c-54.23 0-99.48-20.035-130.85-57.941-30.07-36.325-45.96-87.235-45.96-147.24 0-61.074 15.78-112.25 45.63-147.98 30.88-36.953 75.99-56.488 130.47-56.488 53.92 0 98.95 20.039 130.24 57.953 30 36.359 45.86 87.265 45.86 147.22 0 61.129-15.65 112.29-45.26 147.95-30.7 36.969-75.7 56.512-130.13 56.512"/><path id="path24" d="m2529.4 402.03c-40.78 0-81.24-17.218-111.78-46.871l-3.73 38.36h-74.06v-392.62h84.15v277.38c12.68 17.914 43.12 53.786 83.44 53.786 36.41 0 48.69-13.719 48.69-54.368v-276.8h84.15v281.05c0 38.664-8.46 67.297-25.86 87.539-18.57 21.594-47.16 32.543-85 32.543"/><path id="path26" d="m3066.2 508.4-97.98-337.56-101.34 337.56h-106.5l-41.99-507.5h82.85l19.81 259.04c2.86 36.347 4.57 79.968 5.5 113.46l100.82-320.73h78.49l96.91 320.31c1.19-31.856 3.26-73.868 6.49-113.1l22.01-258.98h84.2l-41.99 507.5h-107.28"/><path id="path28" d="m3483 193.78v-79.879c-20.3-29.972-45.73-45.164-75.64-45.164-40.59 0-57.91 17.957-57.91 60.039 0 21.094 6.58 36.383 20.13 46.739 15.86 12.121 42.17 18.265 78.2 18.265zm84.15-90.531v175.86c0 59.957-25.26 131.43-145.61 131.43-40.6 0-83.7-8.309-128.08-24.695l-8.74-3.227 23.26-65.918 8.91 3.137c33.62 11.824 68.14 18.609 94.73 18.609 51.37 0 71.38-17.629 71.38-62.879v-19.617h-38.76c-58.33 0-104.04-11.09-135.84-32.953-32.37-22.258-49.48-55.816-49.48-97.055 0-75.96 51.31-125.04 130.71-125.04 24.41 0 46.89 4.6445 66.8 13.805 15.99 7.3594 30.04 17.5 41.95 30.246 13.42-25.242 36.53-39.68 70.17-43.977l7.64-0.97266 21.11 61.398-8.66 3.2071c-14.86 5.5-21.49 12.387-21.49 38.644"/><path id="path30" d="m3709.4 567.26c-15.39 0-29.4-5.473-39.44-15.41-9.93-9.817-15.4-23.317-15.4-38.012 0-31.363 23.07-54.129 54.84-54.129 15.45 0 29.58 5.488 39.77 15.461 10.18 9.957 15.78 23.687 15.78 38.668 0 30.457-23.88 53.422-55.55 53.422"/><path id="path32" d="m3667.4 0.89844h84.15v392.62h-84.15v-392.62"/><path id="path34" d="m3976.6 80.871-8.98-3.5898c-6.02-2.4102-12.75-3.5782-20.59-3.5782-7.18 0-13.95 0-13.95 20.328v467.33l-84.15-10.062v-451.6c0-32.887 8.11-58.152 24.12-75.098 14.86-15.73 35.69-23.707 61.92-23.707 19 0 38.27 4.6055 57.26 13.691l7.82 3.7344-23.45 62.547"/><path id="path36" d="m353.8 356.6h-256.23v77.058c26 103.06 128.12 104.48 128.12 104.48s102.11-1.418 128.11-104.48zm-128.11 278.45s-187.1 6.144-225.68-201.4v-141.35s1.5977-15.129 44.144-45.86c42.547-30.726 152.7-117.24 181.54-117.24 28.836 0 138.99 86.516 181.54 117.24 42.547 30.731 44.144 45.86 44.144 45.86v141.35c-38.59 207.54-225.68 201.4-225.68 201.4"/><path id="path38" d="m225.68 97.375s-28.996 2.84-51.692 18.598c-22.691 15.754-173.99 123.86-173.99 123.86v-214s1.2812-24.898 28.703-24.898h196.98 196.98c27.422 0 28.703 24.898 28.703 24.898v214s-151.3-108.1-174-123.86c-22.691-15.758-51.683-18.598-51.683-18.598"/></g></g></svg>
