<?xml version="1.0" encoding="UTF-8"?>
<svg id="svg3219" width="608.28" height="417.75" version="1.1" xmlns="http://www.w3.org/2000/svg">
 <g id="layer1" transform="translate(-45.859 -323.49)">
  <path id="path26" d="m45.859 323.49v417.75h608.28v-417.75h-608.28z" fill="#fff"/>
  <path id="path54" d="m416.27 651.8c-6.0022 31.508-11.089 58.263-13.062 68.656h233.47v-68.656h-220.41zm-357.81 0.625v68.656h231.81l-15.469-68.656h-216.34z" fill="#e05f0c"/>
  <path id="path62" d="m172.35 495-16.872-71.024h143.95l46.62 203.88h1.9898l29.37-130.6c14.8-59.299 20.391-73.276 103.8-73.276h59.989s-12.12 54.661-27.199 113.98c-5.7391 22.628-55.829 19.947-53.329-1.184 0.26312-2.2036 2.6311-18.105 4.5058-29.419 2.7298-16.28-16.264-18.319-19.684-2.2036-2.4338 11.544-13.435 68.836-23.713 122.71h214.9v-292.74h-578.24v292.74h209.85l-29.896-132.76-66.041-0.0987z" fill="#0a438a"/>
 </g>
</svg>
