<?xml version="1.0" encoding="UTF-8" standalone="no"?>
<svg
   xmlns:svg="http://www.w3.org/2000/svg"
   xmlns="http://www.w3.org/2000/svg"
   version="1.1"
   width="608.28125"
   height="417.75"
   id="svg3219">
  <defs
     id="defs3221" />
  <g
     transform="translate(-45.859375,-323.48718)"
     id="layer1">
    <path
       d="m 45.859375,323.48718 0,417.75 608.281245,0 0,-417.75 -608.281245,0 z"
       id="path26"
       style="fill:#ffffff;fill-opacity:1;fill-rule:nonzero;stroke:none" />
    <path
       d="m 416.26562,651.79967 c -6.00223,31.50758 -11.08917,58.26335 -13.0625,68.65625 l 233.46875,0 0,-68.65625 -220.40625,0 z m -357.812495,0.625 0,68.65625 231.812495,0 -15.46875,-68.65625 -216.343745,0 z"
       id="path54"
       style="fill:#e05f0c;fill-opacity:1;fill-rule:nonzero;stroke:none" />
    <path
       d="m 172.34931,495.00301 -16.87201,-71.0236 143.95477,0 46.62005,203.87837 1.98977,0 29.3698,-130.60187 c 14.80001,-59.29872 20.39113,-73.2765 103.79742,-73.2765 l 59.98937,0 c 0,0 -12.11955,54.66137 -27.19913,113.97653 -5.73912,22.62757 -55.82893,19.94712 -53.32938,-1.184 0.26312,-2.20356 2.63112,-18.10535 4.50579,-29.41914 2.72978,-16.28001 -16.26357,-18.31912 -19.68402,-2.20356 -2.43378,11.54401 -13.43512,68.8365 -23.71291,122.70854 l 214.89617,0 0,-292.74422 -578.236439,0 0,292.74422 209.847709,0 -29.89602,-132.7561 -66.04094,-0.0987 z"
       id="path62"
       style="fill:#0a438a;fill-opacity:1;fill-rule:nonzero;stroke:none" />
  </g>
</svg>
