<?xml version="1.0" encoding="UTF-8"?>
<!-- Created with Inkscape (http://www.inkscape.org/) -->
<svg id="svg1973" width="389.76" height="496.06" version="1.0" xmlns="http://www.w3.org/2000/svg">
 <path id="path7445" d="m194.88 17.689c-8.1401 0-16.056 1.6972-23.235 4.8071-7.2107 3.0445-13.011 6.73-18.427 12.018-5.3199 5.3199-9.7104 12.114-12.819 19.229-3.0445 7.1787-4.8071 14.293-4.8071 22.433 0 8.1401 1.7639 16.056 4.8071 23.234 3.1086 7.0825 7.4991 13.14 12.819 18.427 5.4161 5.352 11.217 9.7104 18.427 12.819 7.1787 3.0445 15.094 4.8071 23.235 4.8071 8.2042 0 16.056-1.7639 23.234-4.8071 7.1146-3.1086 13.14-7.4671 18.427-12.819 5.3199-5.2878 9.7104-11.345 12.819-18.427 3.0445-7.1786 4.8072-15.094 4.8072-23.234 0-8.1401-1.7639-15.255-4.8072-22.433-3.1086-7.1146-7.4991-13.909-12.819-19.229-5.2878-5.2878-11.313-8.9733-18.427-12.018-7.1787-3.1086-15.03-4.8071-23.234-4.8071zm-118.58 153.83c-8.1401 0-15.255 0.89734-22.433 4.0059-7.1787 3.0766-13.877 7.4991-19.229 12.819-5.3199 5.3199-8.9733 12.05-12.018 19.229-3.1086 7.1146-4.8071 14.293-4.8071 22.433v129.79h271.6v36.054h-271.6v6.4095 16.825c0 8.1721 1.7306 16.056 4.8071 23.234 3.0445 7.1787 6.73 13.075 12.018 18.427 5.3519 5.2878 12.05 9.7425 19.229 12.819 7.1787 3.1086 14.293 4.8071 22.433 4.8071h237.15c8.1401 0 15.255-1.6972 22.433-4.8071 7.2107-3.0766 13.941-7.5312 19.229-12.819 5.352-5.352 9.7104-11.249 12.819-18.427s4.006-15.062 4.006-23.234v-16.825-112.97h-271.6v-35.252h271.6v-24.036c0-8.1401-0.86401-15.319-4.006-22.433-3.0766-7.1787-7.4671-13.909-12.819-19.229-5.2879-5.3199-12.018-9.7425-19.229-12.819-7.1787-3.1086-14.293-4.0059-22.433-4.0059h-237.15z" fill="#e60005"/>
</svg>
