<?xml version="1.0" encoding="UTF-8"?>
<svg id="svg3362" width="288.91" height="141.86" version="1.1" xmlns="http://www.w3.org/2000/svg" xmlns:cc="http://creativecommons.org/ns#" xmlns:dc="http://purl.org/dc/elements/1.1/" xmlns:rdf="http://www.w3.org/1999/02/22-rdf-syntax-ns#">
 <metadata id="metadata2999">
  <rdf:RDF>
   <cc:Work rdf:about="">
    <dc:format>image/svg+xml</dc:format>
    <dc:type rdf:resource="http://purl.org/dc/dcmitype/StillImage"/>
    <dc:title/>
   </cc:Work>
  </rdf:RDF>
 </metadata>
 <g id="layer1" transform="translate(-449.89 -505.47)">
  <path id="path108" d="m709.97 570.75h28.825v28.825h-28.825zm-86.469 0h28.82v28.825h-28.82zm-86.474 0h28.825v28.825h-28.825zm-18.348 46.249c0 9.1441 1.3345 15.08 4.0132 17.816 2.2644 2.3318 6.1234 3.7675 11.534 4.3023 1.6043 0.13497 4.3553 0.19734 8.2384 0.19734v8.012h-69.453v-8.012c5.579 0 9.6885-0.26479 12.348-0.79976 5.3814-1.1322 8.7732-4.2685 10.165-9.4091 0.72749-2.6642 1.0985-6.7015 1.0985-12.107v-104.72c-11.784 0.33263-21.001 4.2348-27.654 11.712-6.3209 7.1544-10.175 18.105-11.577 32.857l-7.5061-1.296 1.3972-50.086h112.91l1.402 50.086-7.5157 1.296c-1.3971-14.752-5.2851-25.703-11.63-32.857-6.6871-7.4772-15.947-11.38-27.77-11.712v104.72zm-68.656-46.249h28.825v28.825h-28.825z" fill="#e2007a"/>
 </g>
</svg>
