<?xml version="1.0" encoding="UTF-8"?>
<!-- Created with Inkscape (http://www.inkscape.org/) -->
<svg id="svg477" width="192.57" height="27.224" version="1.1" viewBox="0 0 50.952 7.203" xmlns="http://www.w3.org/2000/svg" xmlns:cc="http://creativecommons.org/ns#" xmlns:dc="http://purl.org/dc/elements/1.1/" xmlns:rdf="http://www.w3.org/1999/02/22-rdf-syntax-ns#">
 <defs id="defs471">
  <clipPath id="clipPath109">
   <path id="path107" d="m0 0h612v792h-612z"/>
  </clipPath>
 </defs>
 <metadata id="metadata474">
  <rdf:RDF>
   <cc:Work rdf:about="">
    <dc:format>image/svg+xml</dc:format>
    <dc:type rdf:resource="http://purl.org/dc/dcmitype/StillImage"/>
    <dc:title/>
   </cc:Work>
  </rdf:RDF>
 </metadata>
 <g id="layer1" transform="translate(-73.062 -177.47)">
  <g id="g544" transform="translate(.26458 -.26458)">
   <g id="g93" transform="matrix(.35278 0 0 -.35278 91.409 184.54)">
    <path id="path95" d="m0 0h-3.669v13.013h-4.745v3.145h13.159v-3.145h-4.745z" fill="#100f0d"/>
   </g>
   <path id="path97" d="m98.258 184.54h-1.3021v-5.7002h1.3021z" fill="#100f0d"/>
   <g id="g99" transform="matrix(.35278 0 0 -.35278 121.23 183.42)">
    <path id="path101" d="m0 0h6.383v-3.189h-10.073v16.158h3.69z" fill="#100f0d"/>
   </g>
   <g id="g103" transform="matrix(.35278 0 0 -.35278 37.122 357.59)">
    <g id="g105" clip-path="url(#clipPath109)">
     <g id="g111" transform="translate(185.59 506.7)">
      <path id="path113" d="m0 0h5.979c4.411 0 8.8-2.336 8.8-8.035 0-5.372-4.302-8.123-8.582-8.123h-6.197zm3.581-12.991h2.289c3.079 0 5.131 1.921 5.131 4.978 0 2.904-2.074 4.868-5.044 4.868h-2.376z" fill="#100f0d"/>
     </g>
    </g>
   </g>
   <g id="g115" transform="matrix(.35278 0 0 -.35278 115.03 184.54)">
    <path id="path117" d="m0 0h4.057l-6.657 16.158h-3.81l-6.721-16.158h3.947l1.191 3.188h6.813zm-7.004 6.059 2.434 6.319 2.411-6.319z" fill="#100f0d"/>
   </g>
   <g id="g119" transform="matrix(.35278 0 0 -.35278 79.736 179.67)">
    <path id="path121" d="m0 0-4.729-4.73-4.73 4.73 4.73 4.728z" fill="#100f0d"/>
   </g>
   <g id="g123" transform="matrix(.35278 0 0 -.35278 79.736 183.01)">
    <path id="path125" d="m0 0-4.729-4.73-4.73 4.73 4.73 4.73z" fill="#100f0d"/>
   </g>
   <g id="g127" transform="matrix(.35278 0 0 -.35278 76.399 179.67)">
    <path id="path129" d="m0 0-4.73-4.73-4.729 4.73 4.729 4.729z" fill="#100f0d"/>
   </g>
   <g id="g131" transform="matrix(.35278 0 0 -.35278 83.073 179.67)">
    <path id="path133" d="m0 0-4.729-4.73-4.73 4.73 4.73 4.729z" fill="#100f0d"/>
   </g>
  </g>
 </g>
</svg>
